<?xml version="1.0" encoding="utf-8"?>
<!-- Generator: Adobe Illustrator 17.0.0, SVG Export Plug-In . SVG Version: 6.00 Build 0)  -->
<!DOCTYPE svg PUBLIC "-//W3C//DTD SVG 1.1//EN" "http://www.w3.org/Graphics/SVG/1.1/DTD/svg11.dtd">
<svg version="1.1" id="Layer_1" xmlns="http://www.w3.org/2000/svg" xmlns:xlink="http://www.w3.org/1999/xlink" x="0px" y="0px"
	 width="174px" height="63px" viewBox="0 0 174 63" enable-background="new 0 0 174 63" xml:space="preserve">
<path fill="#FFFFFF" d="M103.164,13.202c-1.832,0-2.483-1.822-2.483-3.383c0-1.563,0.651-3.386,2.483-3.386
	c1.831,0,2.482,1.823,2.482,3.386C105.646,11.38,104.995,13.202,103.164,13.202 M106.431,0.53c-0.575,0-0.948,0.394-0.948,1.003
	v4.285c-0.513-0.557-1.36-1.063-2.446-1.063c-2.79,0-4.252,2.547-4.252,5.064c0,2.516,1.462,5.063,4.252,5.063
	c1.106,0,1.926-0.337,2.446-1.004v0.003c0,0.608,0.373,1.001,0.948,1.001c0.576,0,0.948-0.393,0.948-1.001V1.533
	C107.379,0.924,107.007,0.53,106.431,0.53"/>
<path fill="#FFFFFF" d="M110.565,9.088c0.06-0.792,0.415-2.656,2.434-2.656c0.041,0,0.082,0.001,0.129,0.003
	c1.513,0,2.331,1.309,2.389,2.653 M117.417,9.585c0-2.342-1.503-4.829-4.289-4.829c-2.933,0-4.468,2.546-4.468,5.063
	c0,2.336,1.194,5.063,4.559,5.063c1.984,0,3.998-1.234,3.998-2.121c0-0.557-0.376-0.857-0.73-0.857c-0.26,0-0.483,0.173-0.764,0.394
	c-0.489,0.381-1.159,0.906-2.487,0.906c-1.553,0-2.613-1.046-2.677-2.618h5.818C117.096,10.586,117.417,10.277,117.417,9.585"/>
<path fill="#FFFFFF" d="M122.695,6.435c0.582,0,0.904,0.154,1.186,0.29c0.23,0.11,0.448,0.215,0.746,0.215
	c0.48,0,0.803-0.425,0.803-0.822c0-0.802-1.124-1.362-2.735-1.362c-3.098,0-4.486,2.543-4.486,5.063
	c0,2.521,1.388,5.065,4.486,5.065c1.742,0,2.681-0.723,2.681-1.401c0-0.498-0.301-0.821-0.767-0.821
	c-0.241,0-0.436,0.101-0.644,0.21c-0.299,0.155-0.638,0.332-1.27,0.332c-2.044,0-2.59-2.128-2.59-3.385
	C120.105,8.561,120.651,6.435,122.695,6.435"/>
<path fill="#FFFFFF" d="M130.71,6.435c0.583,0,0.905,0.154,1.187,0.29c0.229,0.11,0.446,0.215,0.745,0.215
	c0.48,0,0.803-0.425,0.803-0.822c0-0.802-1.124-1.362-2.735-1.362c-3.098,0-4.487,2.543-4.487,5.063
	c0,2.521,1.389,5.065,4.487,5.065c1.741,0,2.681-0.723,2.681-1.401c0-0.498-0.3-0.821-0.767-0.821c-0.241,0-0.437,0.101-0.643,0.21
	c-0.3,0.155-0.64,0.332-1.271,0.332c-2.045,0-2.591-2.128-2.591-3.385C128.119,8.561,128.665,6.435,130.71,6.435"/>
<path fill="#FFFFFF" d="M138.617,13.204c-1.832,0-2.483-1.823-2.483-3.385s0.651-3.384,2.483-3.384s2.482,1.822,2.482,3.384
	S140.449,13.204,138.617,13.204 M138.617,4.756c-2.875,0-4.378,2.547-4.378,5.063c0,2.517,1.503,5.065,4.378,5.065
	c2.874,0,4.378-2.548,4.378-5.065C142.995,7.303,141.491,4.756,138.617,4.756"/>
<path fill="#FFFFFF" d="M94.476,3.055c-0.151-0.398-0.432-1.123-1.297-1.123c-0.859,0-1.132,0.689-1.292,1.103
	c-0.006,0.011-1.433,3.839-2.556,6.841h-2.146c-0.75,0-1.016,0.474-1.016,0.88c0,0.422,0.266,0.876,1.016,0.876h1.495
	c-0.395,1.056-0.663,1.772-0.663,1.772c-0.068,0.161-0.141,0.426-0.141,0.641c0,0.422,0.315,0.849,0.918,0.849
	c0.633,0,0.839-0.414,0.989-0.717l0.034-0.064l0.801-2.178c0,0,0.045-0.134,0.107-0.303h2.474c0.752,0,1.019-0.454,1.019-0.876
	c0-0.406-0.267-0.88-1.019-0.88h-1.83c0.477-1.302,1.335-3.636,1.81-4.926c0.506,1.38,2.155,5.864,2.156,5.867
	c0,0.001,0.402,1.115,0.402,1.115c0,0.003,0.792,2.161,0.792,2.161c0.104,0.263,0.312,0.801,1.031,0.801
	c0.605,0,0.921-0.427,0.921-0.849c0-0.215-0.077-0.477-0.149-0.652C98.338,13.404,94.476,3.055,94.476,3.055"/>
<path fill="#FFFFFF" d="M118.327,23.11c0.582,0,0.904,0.154,1.187,0.29c0.229,0.11,0.447,0.215,0.745,0.215
	c0.48,0,0.803-0.424,0.803-0.821c0-0.803-1.124-1.363-2.735-1.363c-3.098,0-4.485,2.544-4.485,5.064s1.387,5.064,4.485,5.064
	c1.742,0,2.681-0.721,2.681-1.401c0-0.498-0.3-0.82-0.767-0.82c-0.241,0-0.436,0.102-0.643,0.21c-0.3,0.154-0.639,0.332-1.271,0.332
	c-2.044,0-2.59-2.129-2.59-3.385C115.737,25.238,116.283,23.11,118.327,23.11"/>
<path fill="#FFFFFF" d="M125.872,29.88c-1.831,0-2.482-1.824-2.482-3.385s0.651-3.385,2.482-3.385c1.832,0,2.483,1.824,2.483,3.385
	S127.704,29.88,125.872,29.88 M129.267,21.431c-0.444,0-0.894,0.319-0.894,0.93v0.161c-0.765-0.753-1.547-1.091-2.501-1.091
	c-2.873,0-4.377,2.547-4.377,5.064c0,2.516,1.504,5.064,4.377,5.064c0.977,0,1.833-0.413,2.501-1.195v0.264
	c0,0.61,0.45,0.931,0.894,0.931c0.432,0,0.892-0.327,0.892-0.931v-8.267C130.159,21.756,129.699,21.431,129.267,21.431"/>
<path fill="#FFFFFF" d="M135.91,29.879c-1.833,0-2.483-1.824-2.483-3.385c0-1.56,0.65-3.386,2.483-3.386
	c1.831,0,2.481,1.826,2.481,3.386C138.391,28.055,137.741,29.879,135.91,29.879 M139.177,17.206c-0.576,0-0.948,0.393-0.948,1.002
	v4.286c-0.513-0.557-1.359-1.064-2.446-1.064c-2.79,0-4.252,2.547-4.252,5.064c0,2.516,1.462,5.064,4.252,5.064
	c1.106,0,1.927-0.336,2.446-1.003v0.001c0,0.608,0.372,1.002,0.948,1.002s0.948-0.394,0.948-1.002V18.208
	C140.125,17.599,139.753,17.206,139.177,17.206"/>
<path fill="#FFFFFF" d="M143.31,25.763c0.06-0.792,0.417-2.656,2.435-2.656c0.041,0,0.082,0.001,0.13,0.003
	c1.512,0,2.33,1.31,2.388,2.653 M150.162,26.26c0-2.342-1.502-4.829-4.287-4.829c-2.934,0-4.468,2.546-4.468,5.063
	c0,2.336,1.194,5.064,4.558,5.064c1.983,0,3.999-1.234,3.999-2.122c0-0.557-0.377-0.857-0.731-0.857
	c-0.26,0-0.482,0.174-0.763,0.394c-0.491,0.381-1.16,0.907-2.487,0.907c-1.554,0-2.613-1.045-2.678-2.618h5.819
	C149.842,27.262,150.162,26.953,150.162,26.26"/>
<path fill="#FFFFFF" d="M161.146,21.431c-1.236,0-2.148,0.465-2.933,1.503c-0.654-0.998-1.543-1.503-2.645-1.503
	c-1.269,0-1.921,0.516-2.304,0.943c-0.023-0.576-0.389-0.943-0.945-0.943c-0.576,0-0.948,0.393-0.948,1.002v8.124
	c0,0.608,0.372,1.002,0.948,1.002c0.574,0,0.948-0.394,0.948-1.002v-5.381c0-1.294,0.704-2.066,1.886-2.066
	c1.193,0,1.904,0.772,1.904,2.066v5.381c0,0.608,0.372,1.002,0.948,1.002c0.575,0,0.947-0.394,0.947-1.002v-5.381
	c0-1.294,0.706-2.066,1.888-2.066c1.193,0,1.904,0.772,1.904,2.066v5.381c0,0.608,0.371,1.002,0.948,1.002
	c0.576,0,0.947-0.394,0.947-1.002v-5.326C164.639,22.606,162.885,21.431,161.146,21.431"/>
<path fill="#FFFFFF" d="M172.519,21.431c-0.434,0-0.764,0.255-0.904,0.702l-2.039,6.203l-2.074-6.202
	c-0.137-0.434-0.497-0.703-0.941-0.703c-0.421,0-0.876,0.314-0.876,0.821c0,0.207,0.045,0.392,0.225,0.936l2.69,7.764l-0.991,2.638
	c-0.208,0.566-0.245,0.737-0.245,0.938c0,0.508,0.455,0.82,0.876,0.82c0.421,0,0.757-0.251,0.922-0.697l4.008-11.466
	c0.181-0.541,0.224-0.725,0.224-0.933C173.394,21.745,172.941,21.431,172.519,21.431"/>
<path fill="#FFFFFF" d="M109.387,19.738c-0.151-0.4-0.43-1.124-1.297-1.124c-0.859,0-1.13,0.689-1.292,1.102
	c-0.006,0.012-1.433,3.84-2.554,6.842h-2.148c-0.75,0-1.016,0.474-1.016,0.879c0,0.423,0.267,0.876,1.016,0.876h1.495
	c-0.393,1.057-0.662,1.773-0.662,1.773c-0.067,0.161-0.142,0.425-0.142,0.641c0,0.421,0.316,0.85,0.918,0.85
	c0.634,0,0.839-0.414,0.99-0.718l0.034-0.063l0.8-2.178c0,0,0.046-0.135,0.108-0.305h2.474c0.752,0,1.018-0.453,1.018-0.876
	c0-0.405-0.266-0.879-1.018-0.879h-1.829c0.476-1.302,1.333-3.636,1.809-4.926c0.507,1.38,2.154,5.865,2.154,5.866
	c0,0.004,0.404,1.116,0.404,1.116c0,0.004,0.793,2.161,0.793,2.161c0.104,0.263,0.311,0.802,1.031,0.802
	c0.603,0,0.919-0.429,0.919-0.85c0-0.216-0.076-0.476-0.148-0.651C113.249,30.086,109.387,19.738,109.387,19.738"/>
<path fill="#FFFFFF" d="M0.259,8.584c-0.529,0-0.22-0.132,0.687-0.295l7.453-1.335c0.906-0.161,2.08-0.294,2.61-0.294
	c0.529,0,0.22,0.133-0.686,0.294L2.871,8.289C1.963,8.452,0.79,8.584,0.259,8.584"/>
<path fill="#FFFFFF" d="M0.259,8.584c-0.529,0-0.22-0.132,0.687-0.295l7.453-1.335c0.906-0.161,2.08-0.294,2.61-0.294
	c0.529,0,0.22,0.133-0.686,0.294L2.871,8.289C1.963,8.452,0.79,8.584,0.259,8.584"/>
<path fill="#FFFFFF" d="M0.259,8.584c-0.529,0-0.22-0.132,0.687-0.295l7.453-1.335c0.906-0.161,2.08-0.294,2.61-0.294
	c0.529,0,0.22,0.133-0.686,0.294L2.871,8.289C1.963,8.452,0.79,8.584,0.259,8.584"/>
<path fill="#FFFFFF" d="M12.711,9.519c-0.921,0-0.972-0.274-0.113-0.605l6.663-2.581C20.119,6,21.576,5.728,22.497,5.728h0.445
	c0.92,0,0.971,0.272,0.113,0.605l-6.666,2.581c-0.858,0.331-2.314,0.605-3.236,0.605"/>
<path fill="#FFFFFF" d="M12.711,9.519c-0.921,0-0.972-0.274-0.113-0.605l6.663-2.581C20.119,6,21.576,5.728,22.497,5.728h0.445
	c0.92,0,0.971,0.272,0.113,0.605l-6.666,2.581c-0.858,0.331-2.314,0.605-3.236,0.605"/>
<g>
	<defs>
		<path id="SVGID_1_" d="M22.497,5.728c-0.921,0-2.378,0.272-3.236,0.604l-6.663,2.582c-0.858,0.331-0.808,0.603,0.113,0.603h0.442
			c0.922,0,2.378-0.272,3.237-0.603l6.665-2.582C23.913,6,23.862,5.728,22.942,5.728H22.497"/>
	</defs>
	<use xlink:href="#SVGID_1_"  overflow="visible" fill="#FFFFFF"/>
	<clipPath id="SVGID_2_">
		<use xlink:href="#SVGID_1_"  overflow="visible"/>
	</clipPath>
	<g clip-path="url(#SVGID_2_)">
		<defs>
			<rect id="SVGID_3_" width="174" height="63"/>
		</defs>
		<use xlink:href="#SVGID_3_"  overflow="visible" fill="#FFFFFF"/>
		<clipPath id="SVGID_4_">
			<use xlink:href="#SVGID_3_"  overflow="visible"/>
		</clipPath>
		<path clip-path="url(#SVGID_4_)" fill="#FFFFFF" d="M18.721-2.694h-5.803c-2.521,0-6.51,0.747-8.861,1.656l-18.248,7.069
			c-2.351,0.91-2.212,1.655,0.308,1.655h1.215c2.521,0,6.51-0.745,8.861-1.655"/>
	</g>
</g>
<g>
	<defs>
		<path id="SVGID_5_" d="M33.078,4.852c-0.923,0-2.304,0.417-3.068,0.93l-5.527,3.684c-0.767,0.511-0.64,0.93,0.282,0.93h2.194
			c0.92,0,2.301-0.419,3.068-0.93l5.527-3.684c0.765-0.513,0.638-0.93-0.282-0.93H33.078"/>
	</defs>
	<use xlink:href="#SVGID_5_"  overflow="visible" fill="#FFFFFF"/>
	<clipPath id="SVGID_6_">
		<use xlink:href="#SVGID_5_"  overflow="visible"/>
	</clipPath>
	<g clip-path="url(#SVGID_6_)">
		<defs>
			<rect id="SVGID_7_" width="174" height="63"/>
		</defs>
		<use xlink:href="#SVGID_7_"  overflow="visible" fill="#FFFFFF"/>
		<clipPath id="SVGID_8_">
			<use xlink:href="#SVGID_7_"  overflow="visible"/>
		</clipPath>
		<path clip-path="url(#SVGID_8_)" fill="#FFFFFF" d="M52.489-5.089H41.892c-2.521,0-6.302,1.14-8.4,2.544L18.357,7.543
			c-2.098,1.4-1.751,2.546,0.771,2.546h6.011c2.521,0,6.301-1.146,8.4-2.546"/>
	</g>
</g>
<path fill="#FFFFFF" d="M24.765,10.396c-0.922,0-1.049-0.419-0.282-0.93l5.527-3.684c0.765-0.513,2.145-0.929,3.067-0.929h2.195
	c0.92,0,1.047,0.416,0.282,0.929l-5.527,3.684c-0.767,0.511-2.147,0.93-3.068,0.93"/>
<path fill="#FFFFFF" d="M38.431,10.473c-0.92,0-1.166-0.557-0.546-1.236l2.946-3.226c0.621-0.682,1.883-1.237,2.804-1.237h2.349
	c0.921,0,1.168,0.556,0.545,1.237l-2.944,3.226c-0.621,0.679-1.882,1.236-2.804,1.236"/>
<path fill="#FFFFFF" d="M38.431,10.473c-0.92,0-1.166-0.557-0.546-1.236l2.946-3.226c0.621-0.682,1.883-1.237,2.804-1.237h2.349
	c0.921,0,1.168,0.556,0.545,1.237l-2.944,3.226c-0.621,0.679-1.882,1.236-2.804,1.236"/>
<path fill="#FFFFFF" d="M38.431,10.473c-0.92,0-1.166-0.557-0.546-1.236l2.946-3.226c0.621-0.682,1.883-1.237,2.804-1.237h2.349
	c0.921,0,1.168,0.556,0.545,1.237l-2.944,3.226c-0.621,0.679-1.882,1.236-2.804,1.236"/>
<path fill="#FFFFFF" d="M50.843,11.017c-0.92,0-1.318-0.662-0.88-1.472l2.074-3.844c0.438-0.811,1.55-1.473,2.47-1.473h3.445
	c0.92,0,1.317,0.662,0.878,1.473l-2.072,3.844c-0.437,0.81-1.548,1.472-2.47,1.472"/>
<path fill="#FFFFFF" d="M50.843,11.017c-0.92,0-1.318-0.662-0.88-1.472l2.074-3.844c0.438-0.811,1.55-1.473,2.47-1.473h3.445
	c0.92,0,1.317,0.662,0.878,1.473l-2.072,3.844c-0.437,0.81-1.548,1.472-2.47,1.472"/>
<path fill="#FFFFFF" d="M50.843,11.017c-0.92,0-1.318-0.662-0.88-1.472l2.074-3.844c0.438-0.811,1.55-1.473,2.47-1.473h3.445
	c0.92,0,1.317,0.662,0.878,1.473l-2.072,3.844c-0.437,0.81-1.548,1.472-2.47,1.472"/>
<path fill="#FFFFFF" d="M62.758,11.463c-0.613,0-0.977-0.484-0.807-1.073l1.598-5.535c0.17-0.589,0.812-1.071,1.425-1.071h5.452
	c0.613,0,0.975,0.482,0.804,1.071l-1.597,5.535c-0.172,0.589-0.813,1.073-1.426,1.073"/>
<path fill="#FFFFFF" d="M62.758,11.463c-0.613,0-0.977-0.484-0.807-1.073l1.598-5.535c0.17-0.589,0.812-1.071,1.425-1.071h5.452
	c0.613,0,0.975,0.482,0.804,1.071l-1.597,5.535c-0.172,0.589-0.813,1.073-1.426,1.073"/>
<path fill="#FFFFFF" d="M62.758,11.463c-0.613,0-0.977-0.484-0.807-1.073l1.598-5.535c0.17-0.589,0.812-1.071,1.425-1.071h5.452
	c0.613,0,0.975,0.482,0.804,1.071l-1.597,5.535c-0.172,0.589-0.813,1.073-1.426,1.073"/>
<path fill="#FFFFFF" d="M83.332,4.565c0.075-0.61-0.365-1.106-0.978-1.106h-6.105c-0.612,0-1.178,0.496-1.252,1.106l-0.761,6.116
	c-0.076,0.61,0.363,1.107,0.978,1.107h6.103c0.614,0,1.177-0.497,1.254-1.107"/>
<path fill="#FFFFFF" d="M0.505,21.695c-0.52,0.091-0.24-0.093,0.626-0.409l7.111-2.612c0.865-0.316,1.998-0.651,2.519-0.744
	c0.522-0.091,0.24,0.093-0.624,0.411l-7.112,2.607C2.161,21.268,1.027,21.602,0.505,21.695"/>
<path fill="#FFFFFF" d="M0.505,21.695c-0.52,0.091-0.24-0.093,0.626-0.409l7.111-2.612c0.865-0.316,1.998-0.651,2.519-0.744
	c0.522-0.091,0.24,0.093-0.624,0.411l-7.112,2.607C2.161,21.268,1.027,21.602,0.505,21.695"/>
<path fill="#FFFFFF" d="M0.505,21.695c-0.52,0.091-0.24-0.093,0.626-0.409l7.111-2.612c0.865-0.316,1.998-0.651,2.519-0.744
	c0.522-0.091,0.24,0.093-0.624,0.411l-7.112,2.607C2.161,21.268,1.027,21.602,0.505,21.695"/>
<path fill="#FFFFFF" d="M13.116,22.57c-0.907,0.159-1.004-0.1-0.216-0.576l6.118-3.701c0.788-0.478,2.174-0.999,3.081-1.158
	l0.437-0.078c0.906-0.16,1.003,0.099,0.215,0.577l-6.116,3.701c-0.789,0.477-2.176,0.997-3.081,1.157"/>
<path fill="#FFFFFF" d="M13.116,22.57c-0.907,0.159-1.004-0.1-0.216-0.576l6.118-3.701c0.788-0.478,2.174-0.999,3.081-1.158
	l0.437-0.078c0.906-0.16,1.003,0.099,0.215,0.577l-6.116,3.701c-0.789,0.477-2.176,0.997-3.081,1.157"/>
<path fill="#FFFFFF" d="M13.116,22.57c-0.907,0.159-1.004-0.1-0.216-0.576l6.118-3.701c0.788-0.478,2.174-0.999,3.081-1.158
	l0.437-0.078c0.906-0.16,1.003,0.099,0.215,0.577l-6.116,3.701c-0.789,0.477-2.176,0.997-3.081,1.157"/>
<path fill="#FFFFFF" d="M25.323,23.454c-0.906,0.161-1.104-0.229-0.438-0.865l4.807-4.591c0.666-0.635,1.952-1.286,2.858-1.446
	l2.16-0.381c0.907-0.159,1.105,0.228,0.439,0.865l-4.803,4.59c-0.666,0.636-1.953,1.288-2.86,1.449"/>
<path fill="#FFFFFF" d="M25.323,23.454c-0.906,0.161-1.104-0.229-0.438-0.865l4.807-4.591c0.666-0.635,1.952-1.286,2.858-1.446
	l2.16-0.381c0.907-0.159,1.105,0.228,0.439,0.865l-4.803,4.59c-0.666,0.636-1.953,1.288-2.86,1.449"/>
<path fill="#FFFFFF" d="M25.323,23.454c-0.906,0.161-1.104-0.229-0.438-0.865l4.807-4.591c0.666-0.635,1.952-1.286,2.858-1.446
	l2.16-0.381c0.907-0.159,1.105,0.228,0.439,0.865l-4.803,4.59c-0.666,0.636-1.953,1.288-2.86,1.449"/>
<path fill="#FFFFFF" d="M38.985,23.275c-0.908,0.16-1.246-0.344-0.752-1.123l2.34-3.689c0.494-0.78,1.64-1.545,2.546-1.705
	l2.314-0.409c0.906-0.16,1.245,0.347,0.753,1.123l-2.344,3.691c-0.492,0.779-1.638,1.545-2.544,1.705"/>
<path fill="#FFFFFF" d="M38.985,23.275c-0.908,0.16-1.246-0.344-0.752-1.123l2.34-3.689c0.494-0.78,1.64-1.545,2.546-1.705
	l2.314-0.409c0.906-0.16,1.245,0.347,0.753,1.123l-2.344,3.691c-0.492,0.779-1.638,1.545-2.544,1.705"/>
<path fill="#FFFFFF" d="M38.985,23.275c-0.908,0.16-1.246-0.344-0.752-1.123l2.34-3.689c0.494-0.78,1.64-1.545,2.546-1.705
	l2.314-0.409c0.906-0.16,1.245,0.347,0.753,1.123l-2.344,3.691c-0.492,0.779-1.638,1.545-2.544,1.705"/>
<path fill="#FFFFFF" d="M51.486,23.776c-0.906,0.16-1.412-0.424-1.122-1.299l1.375-4.149c0.292-0.874,1.27-1.721,2.178-1.881
	l3.393-0.596c0.907-0.16,1.412,0.425,1.122,1.298l-1.375,4.149c-0.29,0.873-1.27,1.719-2.176,1.88"/>
<path fill="#FFFFFF" d="M51.486,23.776c-0.906,0.16-1.412-0.424-1.122-1.299l1.375-4.149c0.292-0.874,1.27-1.721,2.178-1.881
	l3.393-0.596c0.907-0.16,1.412,0.425,1.122,1.298l-1.375,4.149c-0.29,0.873-1.27,1.719-2.176,1.88"/>
<path fill="#FFFFFF" d="M51.486,23.776c-0.906,0.16-1.412-0.424-1.122-1.299l1.375-4.149c0.292-0.874,1.27-1.721,2.178-1.881
	l3.393-0.596c0.907-0.16,1.412,0.425,1.122,1.298l-1.375,4.149c-0.29,0.873-1.27,1.719-2.176,1.88"/>
<path fill="#FFFFFF" d="M64.032,24.164c-0.908,0.16-1.569-0.458-1.471-1.375l0.494-4.619c0.099-0.918,0.921-1.796,1.828-1.957
	l4.266-0.752c0.906-0.16,1.57,0.458,1.471,1.375l-0.494,4.619c-0.097,0.917-0.921,1.796-1.827,1.956"/>
<path fill="#FFFFFF" d="M64.032,24.164c-0.908,0.16-1.569-0.458-1.471-1.375l0.494-4.619c0.099-0.918,0.921-1.796,1.828-1.957
	l4.266-0.752c0.906-0.16,1.57,0.458,1.471,1.375l-0.494,4.619c-0.097,0.917-0.921,1.796-1.827,1.956"/>
<path fill="#FFFFFF" d="M64.032,24.164c-0.908,0.16-1.569-0.458-1.471-1.375l0.494-4.619c0.099-0.918,0.921-1.796,1.828-1.957
	l4.266-0.752c0.906-0.16,1.57,0.458,1.471,1.375l-0.494,4.619c-0.097,0.917-0.921,1.796-1.827,1.956"/>
<path fill="#FFFFFF" d="M75.991,24.535c-0.604,0.107-1.124-0.308-1.156-0.92l-0.312-6.159c-0.033-0.613,0.436-1.201,1.041-1.309
	l6.011-1.058c0.605-0.108,1.124,0.307,1.157,0.919l0.312,6.16c0.031,0.614-0.438,1.202-1.043,1.309"/>
<path fill="#FFFFFF" d="M75.991,24.535c-0.604,0.107-1.124-0.308-1.156-0.92l-0.312-6.159c-0.033-0.613,0.436-1.201,1.041-1.309
	l6.011-1.058c0.605-0.108,1.124,0.307,1.157,0.919l0.312,6.16c0.031,0.614-0.438,1.202-1.043,1.309"/>
<path fill="#FFFFFF" d="M75.991,24.535c-0.604,0.107-1.124-0.308-1.156-0.92l-0.312-6.159c-0.033-0.613,0.436-1.201,1.041-1.309
	l6.011-1.058c0.605-0.108,1.124,0.307,1.157,0.919l0.312,6.16c0.031,0.614-0.438,1.202-1.043,1.309"/>
<path fill="#FFFFFF" d="M0.91,34.748c-0.498,0.183-0.253-0.048,0.543-0.511l6.551-3.805c0.796-0.463,1.854-0.989,2.352-1.171
	c0.498-0.179,0.253,0.049-0.543,0.512l-6.551,3.804C2.466,34.04,1.408,34.568,0.91,34.748"/>
<path fill="#FFFFFF" d="M0.91,34.748c-0.498,0.183-0.253-0.048,0.543-0.511l6.551-3.805c0.796-0.463,1.854-0.989,2.352-1.171
	c0.498-0.179,0.253,0.049-0.543,0.512l-6.551,3.804C2.466,34.04,1.408,34.568,0.91,34.748"/>
<path fill="#FFFFFF" d="M0.91,34.748c-0.498,0.183-0.253-0.048,0.543-0.511l6.551-3.805c0.796-0.463,1.854-0.989,2.352-1.171
	c0.498-0.179,0.253,0.049-0.543,0.512l-6.551,3.804C2.466,34.04,1.408,34.568,0.91,34.748"/>
<path fill="#FFFFFF" d="M13.666,35.537c-0.867,0.315-1.007,0.078-0.313-0.528l5.382-4.708c0.693-0.606,1.968-1.359,2.834-1.675
	l0.416-0.151c0.866-0.316,1.007-0.076,0.314,0.529l-5.381,4.708c-0.695,0.604-1.969,1.359-2.835,1.672"/>
<path fill="#FFFFFF" d="M13.666,35.537c-0.867,0.315-1.007,0.078-0.313-0.528l5.382-4.708c0.693-0.606,1.968-1.359,2.834-1.675
	l0.416-0.151c0.866-0.316,1.007-0.076,0.314,0.529l-5.381,4.708c-0.695,0.604-1.969,1.359-2.835,1.672"/>
<path fill="#FFFFFF" d="M13.666,35.537c-0.867,0.315-1.007,0.078-0.313-0.528l5.382-4.708c0.693-0.606,1.968-1.359,2.834-1.675
	l0.416-0.151c0.866-0.316,1.007-0.076,0.314,0.529l-5.381,4.708c-0.695,0.604-1.969,1.359-2.835,1.672"/>
<path fill="#FFFFFF" d="M26.028,36.407c-0.865,0.314-1.127-0.036-0.582-0.778l3.936-5.354c0.545-0.742,1.699-1.606,2.565-1.921
	l2.06-0.752c0.865-0.314,1.127,0.034,0.582,0.776l-3.935,5.358c-0.546,0.742-1.699,1.608-2.565,1.921"/>
<path fill="#FFFFFF" d="M26.028,36.407c-0.865,0.314-1.127-0.036-0.582-0.778l3.936-5.354c0.545-0.742,1.699-1.606,2.565-1.921
	l2.06-0.752c0.865-0.314,1.127,0.034,0.582,0.776l-3.935,5.358c-0.546,0.742-1.699,1.608-2.565,1.921"/>
<path fill="#FFFFFF" d="M26.028,36.407c-0.865,0.314-1.127-0.036-0.582-0.778l3.936-5.354c0.545-0.742,1.699-1.606,2.565-1.921
	l2.06-0.752c0.865-0.314,1.127,0.034,0.582,0.776l-3.935,5.358c-0.546,0.742-1.699,1.608-2.565,1.921"/>
<path fill="#FFFFFF" d="M39.635,35.976c-0.866,0.314-1.288-0.126-0.936-0.977l1.664-4.041c0.352-0.852,1.347-1.806,2.212-2.122
	l2.207-0.802c0.865-0.314,1.286,0.125,0.937,0.976l-1.666,4.04c-0.35,0.853-1.346,1.806-2.211,2.122"/>
<path fill="#FFFFFF" d="M39.635,35.976c-0.866,0.314-1.288-0.126-0.936-0.977l1.664-4.041c0.352-0.852,1.347-1.806,2.212-2.122
	l2.207-0.802c0.865-0.314,1.286,0.125,0.937,0.976l-1.666,4.04c-0.35,0.853-1.346,1.806-2.211,2.122"/>
<path fill="#FFFFFF" d="M39.635,35.976c-0.866,0.314-1.288-0.126-0.936-0.977l1.664-4.041c0.352-0.852,1.347-1.806,2.212-2.122
	l2.207-0.802c0.865-0.314,1.286,0.125,0.937,0.976l-1.666,4.04c-0.35,0.853-1.346,1.806-2.211,2.122"/>
<path fill="#FFFFFF" d="M52.221,36.414c-0.866,0.314-1.464-0.171-1.33-1.085l0.632-4.326c0.136-0.911,0.952-1.913,1.817-2.228
	l3.239-1.179c0.864-0.315,1.464,0.173,1.331,1.084l-0.637,4.325c-0.134,0.912-0.952,1.915-1.817,2.231"/>
<path fill="#FFFFFF" d="M52.221,36.414c-0.866,0.314-1.464-0.171-1.33-1.085l0.632-4.326c0.136-0.911,0.952-1.913,1.817-2.228
	l3.239-1.179c0.864-0.315,1.464,0.173,1.331,1.084l-0.637,4.325c-0.134,0.912-0.952,1.915-1.817,2.231"/>
<path fill="#FFFFFF" d="M52.221,36.414c-0.866,0.314-1.464-0.171-1.33-1.085l0.632-4.326c0.136-0.911,0.952-1.913,1.817-2.228
	l3.239-1.179c0.864-0.315,1.464,0.173,1.331,1.084l-0.637,4.325c-0.134,0.912-0.952,1.915-1.817,2.231"/>
<path fill="#FFFFFF" d="M64.827,36.734c-0.864,0.316-1.625-0.178-1.688-1.098l-0.315-4.635c-0.064-0.919,0.594-1.927,1.46-2.244
	l4.072-1.481c0.864-0.314,1.623,0.179,1.687,1.098l0.316,4.633c0.062,0.921-0.594,1.93-1.461,2.245"/>
<path fill="#FFFFFF" d="M64.827,36.734c-0.864,0.316-1.625-0.178-1.688-1.098l-0.315-4.635c-0.064-0.919,0.594-1.927,1.46-2.244
	l4.072-1.481c0.864-0.314,1.623,0.179,1.687,1.098l0.316,4.633c0.062,0.921-0.594,1.93-1.461,2.245"/>
<path fill="#FFFFFF" d="M64.827,36.734c-0.864,0.316-1.625-0.178-1.688-1.098l-0.315-4.635c-0.064-0.919,0.594-1.927,1.46-2.244
	l4.072-1.481c0.864-0.314,1.623,0.179,1.687,1.098l0.316,4.633c0.062,0.921-0.594,1.93-1.461,2.245"/>
<path fill="#FFFFFF" d="M77.379,36.952c-0.864,0.315-1.742-0.161-1.948-1.06l-1.127-4.924c-0.206-0.897,0.334-1.89,1.2-2.204
	l4.684-1.706c0.866-0.314,1.743,0.163,1.947,1.059l1.13,4.925c0.204,0.898-0.336,1.89-1.2,2.204"/>
<path fill="#FFFFFF" d="M77.379,36.952c-0.864,0.315-1.742-0.161-1.948-1.06l-1.127-4.924c-0.206-0.897,0.334-1.89,1.2-2.204
	l4.684-1.706c0.866-0.314,1.743,0.163,1.947,1.059l1.13,4.925c0.204,0.898-0.336,1.89-1.2,2.204"/>
<path fill="#FFFFFF" d="M77.379,36.952c-0.864,0.315-1.742-0.161-1.948-1.06l-1.127-4.924c-0.206-0.897,0.334-1.89,1.2-2.204
	l4.684-1.706c0.866-0.314,1.743,0.163,1.947,1.059l1.13,4.925c0.204,0.898-0.336,1.89-1.2,2.204"/>
<path fill="#FFFFFF" d="M90.264,35.02c-0.866,0.315-1.809-0.143-2.097-1.018l-1.688-5.118c-0.289-0.876,0.184-1.848,1.049-2.162
	l5.062-1.844c0.866-0.314,1.811,0.142,2.099,1.018l1.687,5.118c0.287,0.876-0.183,1.849-1.049,2.162"/>
<path fill="#FFFFFF" d="M90.264,35.02c-0.866,0.315-1.809-0.143-2.097-1.018l-1.688-5.118c-0.289-0.876,0.184-1.848,1.049-2.162
	l5.062-1.844c0.866-0.314,1.811,0.142,2.099,1.018l1.687,5.118c0.287,0.876-0.183,1.849-1.049,2.162"/>
<path fill="#FFFFFF" d="M90.264,35.02c-0.866,0.315-1.809-0.143-2.097-1.018l-1.688-5.118c-0.289-0.876,0.184-1.848,1.049-2.162
	l5.062-1.844c0.866-0.314,1.811,0.142,2.099,1.018l1.687,5.118c0.287,0.876-0.183,1.849-1.049,2.162"/>
<path fill="#FFFFFF" d="M2.135,61.366c-0.406,0.34-0.254,0.039,0.336-0.666l4.852-5.813c0.59-0.707,1.405-1.564,1.81-1.903
	c0.406-0.342,0.255-0.042-0.334,0.664l-4.853,5.814C3.355,60.169,2.542,61.026,2.135,61.366"/>
<path fill="#FFFFFF" d="M2.135,61.366c-0.406,0.34-0.254,0.039,0.336-0.666l4.852-5.813c0.59-0.707,1.405-1.564,1.81-1.903
	c0.406-0.342,0.255-0.042-0.334,0.664l-4.853,5.814C3.355,60.169,2.542,61.026,2.135,61.366"/>
<path fill="#FFFFFF" d="M2.135,61.366c-0.406,0.34-0.254,0.039,0.336-0.666l4.852-5.813c0.59-0.707,1.405-1.564,1.81-1.903
	c0.406-0.342,0.255-0.042-0.334,0.664l-4.853,5.814C3.355,60.169,2.542,61.026,2.135,61.366"/>
<path fill="#FFFFFF" d="M15.125,61.915c-0.706,0.592-0.919,0.417-0.474-0.39l3.446-6.263c0.446-0.807,1.385-1.952,2.091-2.541
	l0.339-0.285c0.705-0.594,0.921-0.417,0.476,0.39l-3.447,6.261c-0.444,0.806-1.385,1.95-2.09,2.543"/>
<path fill="#FFFFFF" d="M15.125,61.915c-0.706,0.592-0.919,0.417-0.474-0.39l3.446-6.263c0.446-0.807,1.385-1.952,2.091-2.541
	l0.339-0.285c0.705-0.594,0.921-0.417,0.476,0.39l-3.447,6.261c-0.444,0.806-1.385,1.95-2.09,2.543"/>
<path fill="#FFFFFF" d="M15.125,61.915c-0.706,0.592-0.919,0.417-0.474-0.39l3.446-6.263c0.446-0.807,1.385-1.952,2.091-2.541
	l0.339-0.285c0.705-0.594,0.921-0.417,0.476,0.39l-3.447,6.261c-0.444,0.806-1.385,1.95-2.09,2.543"/>
<path fill="#FFFFFF" d="M27.775,62.674c-0.705,0.592-1.071,0.354-0.812-0.531l1.866-6.374c0.258-0.885,1.046-2.093,1.752-2.685
	l1.681-1.411c0.706-0.591,1.071-0.354,0.811,0.532l-1.864,6.374c-0.257,0.883-1.046,2.092-1.752,2.685"/>
<path fill="#FFFFFF" d="M27.775,62.674c-0.705,0.592-1.071,0.354-0.812-0.531l1.866-6.374c0.258-0.885,1.046-2.093,1.752-2.685
	l1.681-1.411c0.706-0.591,1.071-0.354,0.811,0.532l-1.864,6.374c-0.257,0.883-1.046,2.092-1.752,2.685"/>
<path fill="#FFFFFF" d="M27.775,62.674c-0.705,0.592-1.071,0.354-0.812-0.531l1.866-6.374c0.258-0.885,1.046-2.093,1.752-2.685
	l1.681-1.411c0.706-0.591,1.071-0.354,0.811,0.532l-1.864,6.374c-0.257,0.883-1.046,2.092-1.752,2.685"/>
<path fill="#FFFFFF" d="M41.146,61.787c-0.706,0.591-1.251,0.324-1.212-0.595l0.182-4.366c0.039-0.92,0.648-2.159,1.353-2.749
	l1.802-1.511c0.706-0.593,1.252-0.323,1.213,0.596l-0.183,4.364c-0.039,0.919-0.647,2.156-1.352,2.748"/>
<path fill="#FFFFFF" d="M41.146,61.787c-0.706,0.591-1.251,0.324-1.212-0.595l0.182-4.366c0.039-0.92,0.648-2.159,1.353-2.749
	l1.802-1.511c0.706-0.593,1.252-0.323,1.213,0.596l-0.183,4.364c-0.039,0.919-0.647,2.156-1.352,2.748"/>
<path fill="#FFFFFF" d="M41.146,61.787c-0.706,0.591-1.251,0.324-1.212-0.595l0.182-4.366c0.039-0.92,0.648-2.159,1.353-2.749
	l1.802-1.511c0.706-0.593,1.252-0.323,1.213,0.596l-0.183,4.364c-0.039,0.919-0.647,2.156-1.352,2.748"/>
<path fill="#FFFFFF" d="M53.86,62.062c-0.707,0.591-1.435,0.339-1.621-0.564l-0.884-4.278c-0.186-0.902,0.239-2.124,0.945-2.716
	l2.64-2.216c0.704-0.592,1.433-0.338,1.62,0.564l0.882,4.279c0.187,0.902-0.238,2.124-0.945,2.715"/>
<path fill="#FFFFFF" d="M53.86,62.062c-0.707,0.591-1.435,0.339-1.621-0.564l-0.884-4.278c-0.186-0.902,0.239-2.124,0.945-2.716
	l2.64-2.216c0.704-0.592,1.433-0.338,1.62,0.564l0.882,4.279c0.187,0.902-0.238,2.124-0.945,2.715"/>
<path fill="#FFFFFF" d="M53.86,62.062c-0.707,0.591-1.435,0.339-1.621-0.564l-0.884-4.278c-0.186-0.902,0.239-2.124,0.945-2.716
	l2.64-2.216c0.704-0.592,1.433-0.338,1.62,0.564l0.882,4.279c0.187,0.902-0.238,2.124-0.945,2.715"/>
<path fill="#FFFFFF" d="M66.55,62.22c-0.705,0.592-1.587,0.388-1.96-0.454l-1.881-4.245c-0.374-0.841-0.101-2.015,0.604-2.608
	l3.32-2.784c0.705-0.591,1.586-0.387,1.959,0.455l1.882,4.243c0.373,0.841,0.102,2.015-0.604,2.608"/>
<path fill="#FFFFFF" d="M66.55,62.22c-0.705,0.592-1.587,0.388-1.96-0.454l-1.881-4.245c-0.374-0.841-0.101-2.015,0.604-2.608
	l3.32-2.784c0.705-0.591,1.586-0.387,1.959,0.455l1.882,4.243c0.373,0.841,0.102,2.015-0.604,2.608"/>
<path fill="#FFFFFF" d="M66.55,62.22c-0.705,0.592-1.587,0.388-1.96-0.454l-1.881-4.245c-0.374-0.841-0.101-2.015,0.604-2.608
	l3.32-2.784c0.705-0.591,1.586-0.387,1.959,0.455l1.882,4.243c0.373,0.841,0.102,2.015-0.604,2.608"/>
<path fill="#FFFFFF" d="M79.155,62.302c-0.706,0.591-1.694,0.444-2.194-0.33l-2.741-4.238c-0.5-0.772-0.333-1.888,0.373-2.48
	l3.82-3.204c0.706-0.593,1.692-0.445,2.194,0.329l2.739,4.235c0.502,0.774,0.334,1.891-0.372,2.482"/>
<path fill="#FFFFFF" d="M79.155,62.302c-0.706,0.591-1.694,0.444-2.194-0.33l-2.741-4.238c-0.5-0.772-0.333-1.888,0.373-2.48
	l3.82-3.204c0.706-0.593,1.692-0.445,2.194,0.329l2.739,4.235c0.502,0.774,0.334,1.891-0.372,2.482"/>
<path fill="#FFFFFF" d="M79.155,62.302c-0.706,0.591-1.694,0.444-2.194-0.33l-2.741-4.238c-0.5-0.772-0.333-1.888,0.373-2.48
	l3.82-3.204c0.706-0.593,1.692-0.445,2.194,0.329l2.739,4.235c0.502,0.774,0.334,1.891-0.372,2.482"/>
<path fill="#FFFFFF" d="M91.612,62.336c-0.706,0.591-1.749,0.484-2.32-0.24l-3.332-4.228c-0.571-0.723-0.459-1.8,0.246-2.391
	l4.127-3.462c0.705-0.593,1.749-0.486,2.318,0.238l3.332,4.23c0.573,0.723,0.461,1.8-0.246,2.393"/>
<path fill="#FFFFFF" d="M91.612,62.336c-0.706,0.591-1.749,0.484-2.32-0.24l-3.332-4.228c-0.571-0.723-0.459-1.8,0.246-2.391
	l4.127-3.462c0.705-0.593,1.749-0.486,2.318,0.238l3.332,4.23c0.573,0.723,0.461,1.8-0.246,2.393"/>
<path fill="#FFFFFF" d="M91.612,62.336c-0.706,0.591-1.749,0.484-2.32-0.24l-3.332-4.228c-0.571-0.723-0.459-1.8,0.246-2.391
	l4.127-3.462c0.705-0.593,1.749-0.486,2.318,0.238l3.332,4.23c0.573,0.723,0.461,1.8-0.246,2.393"/>
<path fill="#FFFFFF" d="M105.473,62.346c-0.706,0.592-1.768,0.499-2.359-0.207l-3.545-4.226c-0.592-0.705-0.499-1.767,0.208-2.36
	l4.227-3.549c0.706-0.591,1.768-0.498,2.358,0.207l3.546,4.227c0.593,0.706,0.499,1.767-0.206,2.36"/>
<path fill="#FFFFFF" d="M105.473,62.346c-0.706,0.592-1.768,0.499-2.359-0.207l-3.545-4.226c-0.592-0.705-0.499-1.767,0.208-2.36
	l4.227-3.549c0.706-0.591,1.768-0.498,2.358,0.207l3.546,4.227c0.593,0.706,0.499,1.767-0.206,2.36"/>
<path fill="#FFFFFF" d="M105.473,62.346c-0.706,0.592-1.768,0.499-2.359-0.207l-3.545-4.226c-0.592-0.705-0.499-1.767,0.208-2.36
	l4.227-3.549c0.706-0.591,1.768-0.498,2.358,0.207l3.546,4.227c0.593,0.706,0.499,1.767-0.206,2.36"/>
<path fill="#FFFFFF" d="M119.94,62.346c-0.704,0.592-1.767,0.499-2.359-0.207l-3.545-4.226c-0.59-0.704-0.499-1.767,0.208-2.36
	l4.229-3.549c0.704-0.591,1.766-0.499,2.358,0.207l3.546,4.227c0.591,0.706,0.498,1.767-0.208,2.36"/>
<path fill="#FFFFFF" d="M119.94,62.346c-0.704,0.592-1.767,0.499-2.359-0.207l-3.545-4.226c-0.59-0.704-0.499-1.767,0.208-2.36
	l4.229-3.549c0.704-0.591,1.766-0.499,2.358,0.207l3.546,4.227c0.591,0.706,0.498,1.767-0.208,2.36"/>
<path fill="#FFFFFF" d="M119.94,62.346c-0.704,0.592-1.767,0.499-2.359-0.207l-3.545-4.226c-0.59-0.704-0.499-1.767,0.208-2.36
	l4.229-3.549c0.704-0.591,1.766-0.499,2.358,0.207l3.546,4.227c0.591,0.706,0.498,1.767-0.208,2.36"/>
<path fill="#FFFFFF" d="M1.458,47.719C1,47.984,1.2,47.714,1.903,47.119l5.792-4.883c0.704-0.595,1.656-1.297,2.114-1.562
	s0.257,0.005-0.446,0.599l-5.79,4.885C2.868,46.753,1.917,47.455,1.458,47.719"/>
<path fill="#FFFFFF" d="M1.458,47.719C1,47.984,1.2,47.714,1.903,47.119l5.792-4.883c0.704-0.595,1.656-1.297,2.114-1.562
	s0.257,0.005-0.446,0.599l-5.79,4.885C2.868,46.753,1.917,47.455,1.458,47.719"/>
<path fill="#FFFFFF" d="M1.458,47.719C1,47.984,1.2,47.714,1.903,47.119l5.792-4.883c0.704-0.595,1.656-1.297,2.114-1.562
	s0.257,0.005-0.446,0.599l-5.79,4.885C2.868,46.753,1.917,47.455,1.458,47.719"/>
<path fill="#FFFFFF" d="M14.343,48.398c-0.798,0.46-0.978,0.251-0.401-0.467l4.483-5.572c0.577-0.718,1.703-1.681,2.501-2.142
	l0.384-0.222c0.799-0.461,0.979-0.25,0.401,0.467l-4.485,5.573c-0.577,0.717-1.701,1.681-2.499,2.141"/>
<path fill="#FFFFFF" d="M14.343,48.398c-0.798,0.46-0.978,0.251-0.401-0.467l4.483-5.572c0.577-0.718,1.703-1.681,2.501-2.142
	l0.384-0.222c0.799-0.461,0.979-0.25,0.401,0.467l-4.485,5.573c-0.577,0.717-1.701,1.681-2.499,2.141"/>
<path fill="#FFFFFF" d="M14.343,48.398c-0.798,0.46-0.978,0.251-0.401-0.467l4.483-5.572c0.577-0.718,1.703-1.681,2.501-2.142
	l0.384-0.222c0.799-0.461,0.979-0.25,0.401,0.467l-4.485,5.573c-0.577,0.717-1.701,1.681-2.499,2.141"/>
<path fill="#FFFFFF" d="M26.854,49.225c-0.798,0.46-1.116,0.161-0.708-0.665l2.943-5.956c0.41-0.825,1.396-1.877,2.193-2.338
	l1.902-1.098c0.797-0.462,1.116-0.163,0.708,0.662l-2.946,5.958c-0.409,0.826-1.396,1.88-2.193,2.34"/>
<path fill="#FFFFFF" d="M26.854,49.225c-0.798,0.46-1.116,0.161-0.708-0.665l2.943-5.956c0.41-0.825,1.396-1.877,2.193-2.338
	l1.902-1.098c0.797-0.462,1.116-0.163,0.708,0.662l-2.946,5.958c-0.409,0.826-1.396,1.88-2.193,2.34"/>
<path fill="#FFFFFF" d="M26.854,49.225c-0.798,0.46-1.116,0.161-0.708-0.665l2.943-5.956c0.41-0.825,1.396-1.877,2.193-2.338
	l1.902-1.098c0.797-0.462,1.116-0.163,0.708,0.662l-2.946,5.958c-0.409,0.826-1.396,1.88-2.193,2.34"/>
<path fill="#FFFFFF" d="M40.362,48.556c-0.798,0.459-1.289,0.1-1.091-0.8l0.94-4.269c0.197-0.899,1.01-2.013,1.808-2.472
	l2.036-1.176c0.796-0.459,1.287-0.1,1.09,0.799l-0.939,4.27c-0.198,0.9-1.012,2.012-1.809,2.472"/>
<path fill="#FFFFFF" d="M40.362,48.556c-0.798,0.459-1.289,0.1-1.091-0.8l0.94-4.269c0.197-0.899,1.01-2.013,1.808-2.472
	l2.036-1.176c0.796-0.459,1.287-0.1,1.09,0.799l-0.939,4.27c-0.198,0.9-1.012,2.012-1.809,2.472"/>
<path fill="#FFFFFF" d="M40.362,48.556c-0.798,0.459-1.289,0.1-1.091-0.8l0.94-4.269c0.197-0.899,1.01-2.013,1.808-2.472
	l2.036-1.176c0.796-0.459,1.287-0.1,1.09,0.799l-0.939,4.27c-0.198,0.9-1.012,2.012-1.809,2.472"/>
<path fill="#FFFFFF" d="M53.019,48.917c-0.798,0.461-1.472,0.085-1.5-0.835l-0.126-4.372c-0.027-0.919,0.603-2.05,1.401-2.509
	l2.983-1.725c0.798-0.46,1.472-0.082,1.498,0.837l0.128,4.37c0.028,0.921-0.603,2.05-1.401,2.512"/>
<path fill="#FFFFFF" d="M53.019,48.917c-0.798,0.461-1.472,0.085-1.5-0.835l-0.126-4.372c-0.027-0.919,0.603-2.05,1.401-2.509
	l2.983-1.725c0.798-0.46,1.472-0.082,1.498,0.837l0.128,4.37c0.028,0.921-0.603,2.05-1.401,2.512"/>
<path fill="#FFFFFF" d="M53.019,48.917c-0.798,0.461-1.472,0.085-1.5-0.835l-0.126-4.372c-0.027-0.919,0.603-2.05,1.401-2.509
	l2.983-1.725c0.798-0.46,1.472-0.082,1.498,0.837l0.128,4.37c0.028,0.921-0.603,2.05-1.401,2.512"/>
<path fill="#FFFFFF" d="M65.675,49.162c-0.799,0.46-1.631,0.106-1.853-0.787l-1.117-4.513c-0.221-0.894,0.252-2.002,1.049-2.462
	l3.752-2.167c0.798-0.462,1.631-0.106,1.853,0.787l1.115,4.511c0.222,0.895-0.25,2.003-1.048,2.463"/>
<path fill="#FFFFFF" d="M65.675,49.162c-0.799,0.46-1.631,0.106-1.853-0.787l-1.117-4.513c-0.221-0.894,0.252-2.002,1.049-2.462
	l3.752-2.167c0.798-0.462,1.631-0.106,1.853,0.787l1.115,4.511c0.222,0.895-0.25,2.003-1.048,2.463"/>
<path fill="#FFFFFF" d="M65.675,49.162c-0.799,0.46-1.631,0.106-1.853-0.787l-1.117-4.513c-0.221-0.894,0.252-2.002,1.049-2.462
	l3.752-2.167c0.798-0.462,1.631-0.106,1.853,0.787l1.115,4.511c0.222,0.895-0.25,2.003-1.048,2.463"/>
<path fill="#FFFFFF" d="M78.258,49.314c-0.8,0.46-1.745,0.143-2.103-0.708l-1.965-4.652c-0.357-0.85,0-1.919,0.799-2.379
	l4.319-2.495c0.799-0.459,1.744-0.142,2.103,0.707l1.965,4.654c0.359,0.848-0.001,1.919-0.8,2.379"/>
<path fill="#FFFFFF" d="M78.258,49.314c-0.8,0.46-1.745,0.143-2.103-0.708l-1.965-4.652c-0.357-0.85,0-1.919,0.799-2.379
	l4.319-2.495c0.799-0.459,1.744-0.142,2.103,0.707l1.965,4.654c0.359,0.848-0.001,1.919-0.8,2.379"/>
<path fill="#FFFFFF" d="M78.258,49.314c-0.8,0.46-1.745,0.143-2.103-0.708l-1.965-4.652c-0.357-0.85,0-1.919,0.799-2.379
	l4.319-2.495c0.799-0.459,1.744-0.142,2.103,0.707l1.965,4.654c0.359,0.848-0.001,1.919-0.8,2.379"/>
<path fill="#FFFFFF" d="M90.708,49.391c-0.799,0.461-1.808,0.174-2.244-0.637l-2.552-4.746c-0.435-0.812-0.139-1.853,0.657-2.312
	l4.666-2.694c0.799-0.462,1.807-0.174,2.243,0.638l2.551,4.746c0.436,0.812,0.14,1.852-0.658,2.312"/>
<path fill="#FFFFFF" d="M90.708,49.391c-0.799,0.461-1.808,0.174-2.244-0.637l-2.552-4.746c-0.435-0.812-0.139-1.853,0.657-2.312
	l4.666-2.694c0.799-0.462,1.807-0.174,2.243,0.638l2.551,4.746c0.436,0.812,0.14,1.852-0.658,2.312"/>
<path fill="#FFFFFF" d="M90.708,49.391c-0.799,0.461-1.808,0.174-2.244-0.637l-2.552-4.746c-0.435-0.812-0.139-1.853,0.657-2.312
	l4.666-2.694c0.799-0.462,1.807-0.174,2.243,0.638l2.551,4.746c0.436,0.812,0.14,1.852-0.658,2.312"/>
<path fill="#FFFFFF" d="M102.99,49.417c-0.798,0.461-1.827,0.185-2.287-0.611l-2.76-4.78c-0.462-0.8-0.186-1.829,0.612-2.289
	l4.781-2.761c0.799-0.46,1.827-0.184,2.288,0.613l2.76,4.781c0.46,0.797,0.185,1.826-0.612,2.286"/>
<path fill="#FFFFFF" d="M102.99,49.417c-0.798,0.461-1.827,0.185-2.287-0.611l-2.76-4.78c-0.462-0.8-0.186-1.829,0.612-2.289
	l4.781-2.761c0.799-0.46,1.827-0.184,2.288,0.613l2.76,4.781c0.46,0.797,0.185,1.826-0.612,2.286"/>
<path fill="#FFFFFF" d="M102.99,49.417c-0.798,0.461-1.827,0.185-2.287-0.611l-2.76-4.78c-0.462-0.8-0.186-1.829,0.612-2.289
	l4.781-2.761c0.799-0.46,1.827-0.184,2.288,0.613l2.76,4.781c0.46,0.797,0.185,1.826-0.612,2.286"/>
<path fill="#FFFFFF" d="M116.071,49.417c-0.796,0.461-1.826,0.185-2.287-0.611l-2.76-4.78c-0.459-0.8-0.185-1.829,0.613-2.289
	l4.782-2.761c0.796-0.46,1.827-0.184,2.288,0.613l2.76,4.781c0.459,0.797,0.184,1.826-0.614,2.286"/>
<path fill="#FFFFFF" d="M116.071,49.417c-0.796,0.461-1.826,0.185-2.287-0.611l-2.76-4.78c-0.459-0.8-0.185-1.829,0.613-2.289
	l4.782-2.761c0.796-0.46,1.827-0.184,2.288,0.613l2.76,4.781c0.459,0.797,0.184,1.826-0.614,2.286"/>
<path fill="#FFFFFF" d="M116.071,49.417c-0.796,0.461-1.826,0.185-2.287-0.611l-2.76-4.78c-0.459-0.8-0.185-1.829,0.613-2.289
	l4.782-2.761c0.796-0.46,1.827-0.184,2.288,0.613l2.76,4.781c0.459,0.797,0.184,1.826-0.614,2.286"/>
</svg>
