<?xml version="1.0" encoding="utf-8"?>
<!-- Generator: Adobe Illustrator 17.0.0, SVG Export Plug-In . SVG Version: 6.00 Build 0)  -->
<!DOCTYPE svg PUBLIC "-//W3C//DTD SVG 1.1//EN" "http://www.w3.org/Graphics/SVG/1.1/DTD/svg11.dtd">
<svg version="1.1" id="Ebene_1" xmlns="http://www.w3.org/2000/svg" xmlns:xlink="http://www.w3.org/1999/xlink" x="0px" y="0px"
	 width="2000px" height="2000px" viewBox="0 0 2000 2000" enable-background="new 0 0 2000 2000" xml:space="preserve">
<path fill="#FFFFFF" d="M1586.207,365.517l-896.552,751.724C600,1193.104,468.966,1179.31,400,1089.655l0,0
	C324.138,1000,337.931,868.966,427.586,800l896.552-751.724c89.655-75.862,220.69-62.069,289.655,27.586l0,0
	C1682.759,158.621,1668.966,289.655,1586.207,365.517z"/>
<path fill="#FFFFFF" d="M1317.241,1868.965L420.69,1117.241c-89.655-75.862-96.552-206.897-27.586-289.655l0,0
	C468.966,737.931,600,731.035,682.759,800l896.552,751.724c89.655,75.862,96.552,206.896,27.586,289.655l0,0
	C1537.931,1931.034,1406.896,1944.828,1317.241,1868.965z"/>
</svg>
