<?xml version="1.0" encoding="utf-8"?>
<!-- Generator: Adobe Illustrator 17.0.0, SVG Export Plug-In . SVG Version: 6.00 Build 0)  -->
<!DOCTYPE svg PUBLIC "-//W3C//DTD SVG 1.1//EN" "http://www.w3.org/Graphics/SVG/1.1/DTD/svg11.dtd">
<svg version="1.1" id="Ebene_1" xmlns="http://www.w3.org/2000/svg" xmlns:xlink="http://www.w3.org/1999/xlink" x="0px" y="0px"
	 width="25.625px" height="31.188px" viewBox="0 0 25.625 31.188" enable-background="new 0 0 25.625 31.188" xml:space="preserve">
<path fill="#CBCED7" d="M22.193,21.759l-6.549-6.549l6.549-6.549c0.708-0.708,0.708-2.006,0-2.832c-0.826-0.826-2.006-0.826-2.832,0
	l-6.549,6.549L6.264,5.83c-0.826-0.826-2.006-0.826-2.832,0c-0.826,0.826-0.826,2.006,0,2.832l6.549,6.549l-6.549,6.549
	c-0.826,0.826-0.826,2.006,0,2.832c0.826,0.826,2.006,0.826,2.832,0l6.549-6.549l6.549,6.549c0.708,0.826,2.006,0.826,2.832,0
	C23.019,23.765,23.019,22.585,22.193,21.759z"/>
</svg>
