<?xml version="1.0" encoding="utf-8"?>
<!-- Generator: Adobe Illustrator 20.0.0, SVG Export Plug-In . SVG Version: 6.00 Build 0)  -->
<svg version="1.1" id="Ebene_1" xmlns="http://www.w3.org/2000/svg" xmlns:xlink="http://www.w3.org/1999/xlink" x="0px" y="0px"
	 viewBox="0 0 17.2 17.1" style="enable-background:new 0 0 17.2 17.1;" xml:space="preserve">
<style type="text/css">
	.st0{fill:#CBCED7;}
</style>
<g>
	<path class="st0" d="M14.1,16.4L0.6,2.9c-0.7-0.7-0.7-1.7,0-2.4l0,0c0.7-0.7,1.7-0.7,2.4,0L16.5,14c0.7,0.7,0.7,1.7,0,2.4l0,0
		C15.8,17.1,14.7,17.1,14.1,16.4z"/>
	<path class="st0" d="M16.5,2.9L3,16.4c-0.7,0.7-1.7,0.7-2.4,0l0,0c-0.7-0.7-0.7-1.7,0-2.4L14.1,0.5c0.7-0.7,1.7-0.7,2.4,0l0,0
		C17.1,1.2,17.1,2.3,16.5,2.9z"/>
</g>
</svg>
