<?xml version="1.0" encoding="utf-8"?>
<!-- Generator: Adobe Illustrator 17.0.0, SVG Export Plug-In . SVG Version: 6.00 Build 0)  -->
<!DOCTYPE svg PUBLIC "-//W3C//DTD SVG 1.1//EN" "http://www.w3.org/Graphics/SVG/1.1/DTD/svg11.dtd">
<svg version="1.1" id="Layer_1" xmlns="http://www.w3.org/2000/svg" xmlns:xlink="http://www.w3.org/1999/xlink" x="0px" y="0px"
	 width="18.999px" height="18.558px" viewBox="0 0 18.999 18.558" enable-background="new 0 0 18.999 18.558" xml:space="preserve">
<g>
	<path fill="#FFFFFF" d="M18.454,9.348c0,1.768-0.02,2.991-0.058,3.67c-0.078,1.606-0.557,2.849-1.436,3.729
		c-0.879,0.879-2.124,1.358-3.729,1.435c-0.679,0.039-1.902,0.058-3.67,0.058c-1.768,0-2.992-0.019-3.671-0.058
		c-1.606-0.077-2.849-0.556-3.729-1.435c-0.88-0.881-1.359-2.123-1.436-3.729c-0.039-0.679-0.058-1.902-0.058-3.67
		s0.019-2.991,0.058-3.671C0.801,4.072,1.28,2.829,2.16,1.949s2.123-1.359,3.729-1.436C6.568,0.475,7.791,0.456,9.56,0.456
		c1.768,0,2.991,0.019,3.67,0.057c1.605,0.077,2.85,0.556,3.729,1.436s1.358,2.123,1.436,3.728
		C18.433,6.357,18.454,7.581,18.454,9.348z M10.445,2.048C9.909,2.051,9.613,2.053,9.56,2.053c-0.054,0-0.35-0.002-0.886-0.006
		c-0.536-0.004-0.944-0.004-1.222,0c-0.278,0.004-0.65,0.016-1.118,0.035C5.867,2.102,5.47,2.14,5.142,2.198
		C4.814,2.256,4.538,2.327,4.314,2.412C3.928,2.567,3.588,2.791,3.295,3.084C3.002,3.378,2.778,3.717,2.623,4.103
		c-0.085,0.224-0.156,0.5-0.214,0.828S2.313,5.657,2.294,6.124c-0.02,0.467-0.031,0.84-0.035,1.118
		c-0.004,0.278-0.004,0.685,0,1.222c0.004,0.537,0.006,0.832,0.006,0.886c0,0.054-0.003,0.35-0.006,0.886
		c-0.004,0.537-0.004,0.944,0,1.222c0.004,0.277,0.016,0.65,0.035,1.118c0.019,0.466,0.057,0.864,0.115,1.192
		c0.058,0.329,0.129,0.605,0.214,0.828c0.154,0.387,0.379,0.726,0.672,1.019c0.294,0.294,0.633,0.518,1.019,0.672
		c0.224,0.086,0.5,0.156,0.828,0.214c0.328,0.058,0.726,0.097,1.193,0.116c0.467,0.019,0.84,0.031,1.118,0.035
		c0.278,0.004,0.685,0.004,1.222,0c0.537-0.004,0.832-0.006,0.886-0.006c0.054,0,0.349,0.003,0.886,0.006
		c0.536,0.004,0.944,0.004,1.222,0c0.278-0.004,0.65-0.016,1.118-0.035c0.467-0.019,0.864-0.058,1.191-0.116
		c0.33-0.058,0.605-0.129,0.829-0.214c0.386-0.154,0.726-0.378,1.018-0.672c0.295-0.294,0.519-0.632,0.673-1.019
		c0.086-0.223,0.156-0.499,0.214-0.828c0.058-0.328,0.096-0.726,0.116-1.192c0.02-0.467,0.03-0.84,0.035-1.118
		c0.003-0.278,0.003-0.685,0-1.222c-0.005-0.536-0.008-0.832-0.008-0.886c0-0.054,0.003-0.349,0.008-0.886
		c0.003-0.537,0.003-0.944,0-1.222c-0.005-0.278-0.015-0.65-0.035-1.118c-0.02-0.467-0.058-0.864-0.116-1.193
		s-0.129-0.604-0.214-0.828c-0.154-0.386-0.378-0.726-0.673-1.019c-0.292-0.293-0.632-0.517-1.018-0.672
		c-0.224-0.085-0.499-0.156-0.829-0.214c-0.328-0.058-0.724-0.096-1.191-0.116c-0.467-0.019-0.84-0.031-1.118-0.035
		C11.389,2.044,10.982,2.044,10.445,2.048z M12.79,6.118c0.888,0.888,1.332,1.965,1.332,3.23c0,1.266-0.443,2.343-1.332,3.23
		c-0.888,0.888-1.965,1.332-3.23,1.332c-1.266,0-2.343-0.443-3.231-1.332c-0.888-0.887-1.332-1.964-1.332-3.23
		c0-1.266,0.444-2.343,1.332-3.23S8.293,4.786,9.56,4.786C10.825,4.786,11.903,5.23,12.79,6.118z M11.656,11.444
		c0.579-0.578,0.868-1.277,0.868-2.095s-0.289-1.517-0.868-2.096c-0.579-0.579-1.278-0.868-2.096-0.868
		c-0.818,0-1.517,0.289-2.096,0.868S6.595,8.53,6.595,9.348s0.29,1.517,0.869,2.095c0.579,0.58,1.278,0.869,2.096,0.869
		C10.377,12.313,11.077,12.023,11.656,11.444z M15.059,3.848c0.209,0.209,0.312,0.459,0.312,0.753s-0.103,0.544-0.312,0.753
		c-0.209,0.209-0.459,0.312-0.753,0.312c-0.292,0-0.544-0.104-0.751-0.312c-0.209-0.209-0.312-0.459-0.312-0.753
		s0.103-0.544,0.312-0.753c0.207-0.209,0.459-0.312,0.751-0.312C14.601,3.536,14.85,3.64,15.059,3.848z"/>
</g>
</svg>
