<?xml version="1.0" encoding="utf-8"?>
<!-- Generator: Adobe Illustrator 17.0.0, SVG Export Plug-In . SVG Version: 6.00 Build 0)  -->
<!DOCTYPE svg PUBLIC "-//W3C//DTD SVG 1.1//EN" "http://www.w3.org/Graphics/SVG/1.1/DTD/svg11.dtd">
<svg version="1.1" id="Layer_1" xmlns="http://www.w3.org/2000/svg" xmlns:xlink="http://www.w3.org/1999/xlink" x="0px" y="0px"
	 width="19.332px" height="18.558px" viewBox="0 0 19.332 18.558" enable-background="new 0 0 19.332 18.558" xml:space="preserve">
<g>
	<path fill="#FFFFFF" d="M4.732,2.38C4.74,2.975,4.534,3.473,4.114,3.873c-0.42,0.4-0.973,0.6-1.659,0.6H2.431
		c-0.669,0-1.208-0.2-1.616-0.6c-0.408-0.4-0.612-0.898-0.612-1.493c0-0.604,0.21-1.104,0.63-1.499
		c0.42-0.396,0.969-0.594,1.646-0.594S3.7,0.484,4.108,0.88C4.516,1.276,4.724,1.776,4.732,2.38z M4.475,6.125v12.13H0.436V6.125
		H4.475z M19.004,11.302v6.953h-4.027v-6.487c0-0.857-0.165-1.528-0.496-2.014c-0.331-0.486-0.847-0.728-1.548-0.728
		c-0.514,0-0.945,0.14-1.291,0.422c-0.347,0.281-0.606,0.63-0.777,1.046c-0.09,0.245-0.135,0.575-0.135,0.992v6.769H6.703
		c0.016-3.256,0.025-5.896,0.025-7.92c0-2.024-0.004-3.232-0.012-3.623L6.703,6.125h4.027v1.763h-0.024
		c0.163-0.261,0.33-0.489,0.502-0.685c0.171-0.196,0.402-0.408,0.692-0.636c0.289-0.228,0.645-0.406,1.064-0.533
		c0.421-0.126,0.888-0.19,1.402-0.19c1.396,0,2.517,0.463,3.366,1.389C18.58,8.159,19.004,9.515,19.004,11.302z"/>
</g>
</svg>
