<?xml version="1.0" encoding="utf-8"?>
<!-- Generator: Adobe Illustrator 20.1.0, SVG Export Plug-In . SVG Version: 6.00 Build 0)  -->
<svg version="1.1" id="Ebene_1" xmlns="http://www.w3.org/2000/svg" xmlns:xlink="http://www.w3.org/1999/xlink" x="0px" y="0px"
	 viewBox="0 0 99.2 70.9" style="enable-background:new 0 0 99.2 70.9;" xml:space="preserve">
<style type="text/css">
	.st0{fill:#DACC8B;}
	.st1{fill:none;stroke:#983854;stroke-width:2;stroke-miterlimit:10;}
	.st2{fill:none;stroke:#DACC8B;stroke-miterlimit:10;}
	.st3{fill:#89C9B7;}
</style>
<g>
	<polygon class="st0" points="49.6,19.8 52.9,26.4 60.2,27.5 54.9,32.6 56.1,39.9 49.6,36.5 43.1,39.9 44.3,32.6 39,27.5 46.3,26.4"/>
	<circle class="st1" cx="49.6" cy="30.9" r="19"/>
	<circle class="st2" cx="49.6" cy="30.9" r="26"/>
</g>
<g>
	<path class="st3" d="M25.1,63.1c0.9,1.2,2.2,2.2,3.8,2.7c3.7,1.2,7.7-0.5,9.4-3.9c-0.9-1.2-2.2-2.2-3.8-2.7
		C30.8,58,26.8,59.7,25.1,63.1z"/>
	<path class="st3" d="M13.3,50.9c0.5,1.4,1.5,2.8,2.8,3.7c3.2,2.3,7.5,1.8,10.2-0.9c-0.5-1.4-1.5-2.8-2.8-3.7
		C20.3,47.8,16,48.2,13.3,50.9z"/>
	<path class="st3" d="M9,36.8c0,1.5,0.5,3.1,1.5,4.4c2.3,3.2,6.5,4.2,9.9,2.4c0-1.5-0.5-3.1-1.5-4.4C16.7,36,12.4,35.1,9,36.8z"/>
</g>
<g>
	<path class="st3" d="M74.1,63.1c-0.9,1.2-2.2,2.2-3.8,2.7c-3.7,1.2-7.7-0.5-9.4-3.9c0.9-1.2,2.2-2.2,3.8-2.7
		C68.4,58,72.4,59.7,74.1,63.1z"/>
	<path class="st3" d="M85.9,50.9c-0.5,1.4-1.5,2.8-2.8,3.7c-3.2,2.3-7.5,1.8-10.2-0.9c0.5-1.4,1.5-2.8,2.8-3.7
		C78.9,47.8,83.2,48.2,85.9,50.9z"/>
	<path class="st3" d="M90.2,36.8c0,1.5-0.5,3.1-1.5,4.4c-2.3,3.2-6.5,4.2-9.9,2.4c0-1.5,0.5-3.1,1.5-4.4
		C82.6,36,86.8,35.1,90.2,36.8z"/>
</g>
</svg>
