<?xml version="1.0" encoding="utf-8"?>
<!-- Generator: Adobe Illustrator 17.0.0, SVG Export Plug-In . SVG Version: 6.00 Build 0)  -->
<!DOCTYPE svg PUBLIC "-//W3C//DTD SVG 1.1//EN" "http://www.w3.org/Graphics/SVG/1.1/DTD/svg11.dtd">
<svg version="1.1" id="Ebene_1" xmlns="http://www.w3.org/2000/svg" xmlns:xlink="http://www.w3.org/1999/xlink" x="0px" y="0px"
	 width="1673.8px" height="1278.328px" viewBox="0 0 1673.8 1278.328" enable-background="new 0 0 1673.8 1278.328"
	 xml:space="preserve">
<polygon fill="#FFFFFF" points="834.77,321.849 901.302,454.913 1048.48,477.091 941.625,579.913 965.818,727.091 834.77,658.542 
	703.722,727.091 727.915,579.913 621.06,477.091 768.238,454.913 "/>
<path fill="#FFFFFF" d="M834.77,938.704c-53.059,0-104.536-10.394-153.001-30.893c-46.807-19.798-88.842-48.139-124.937-84.233
	s-64.435-78.13-84.233-124.938c-20.499-48.465-30.893-99.942-30.893-153.001s10.394-104.536,30.893-153.001
	c19.798-46.807,48.138-88.842,84.233-124.937s78.13-64.435,124.937-84.233c48.465-20.499,99.942-30.893,153.001-30.893
	c53.059,0,104.536,10.394,153.001,30.893c46.808,19.798,88.843,48.138,124.938,84.233s64.436,78.13,84.233,124.937
	c20.499,48.465,30.893,99.942,30.893,153.001s-10.394,104.537-30.893,153.001c-19.798,46.808-48.139,88.843-84.233,124.938
	s-78.13,64.436-124.938,84.233C939.306,928.311,887.829,938.704,834.77,938.704z M834.77,172.575
	c-50.368,0-99.224,9.862-145.21,29.313c-44.423,18.79-84.321,45.69-118.586,79.955s-61.166,74.163-79.955,118.586
	c-19.451,45.987-29.313,94.843-29.313,145.21s9.862,99.224,29.313,145.21c18.79,44.423,45.69,84.321,79.955,118.586
	c34.265,34.266,74.163,61.166,118.586,79.955c45.987,19.451,94.843,29.313,145.21,29.313c50.368,0,99.224-9.862,145.211-29.313
	c44.423-18.789,84.32-45.689,118.585-79.955c34.266-34.265,61.166-74.163,79.955-118.586c19.451-45.986,29.313-94.843,29.313-145.21
	s-9.862-99.224-29.313-145.21c-18.789-44.423-45.689-84.321-79.955-118.586c-34.265-34.265-74.162-61.166-118.585-79.955
	C933.994,182.437,885.138,172.575,834.77,172.575z"/>
<path fill="#FFFFFF" d="M834.77,1075.333c-71.506,0-140.875-14.006-206.182-41.628c-63.076-26.68-119.723-64.871-168.368-113.516
	s-86.836-105.292-113.515-168.368c-27.623-65.307-41.628-134.676-41.628-206.182s14.006-140.876,41.628-206.182
	c26.679-63.076,64.871-119.723,113.515-168.368c48.645-48.644,105.292-86.836,168.368-113.516
	c65.307-27.622,134.676-41.628,206.182-41.628s140.875,14.006,206.183,41.628c63.076,26.679,119.723,64.872,168.367,113.516
	c48.645,48.645,86.837,105.292,113.516,168.368c27.622,65.307,41.628,134.676,41.628,206.182s-14.006,140.875-41.628,206.182
	c-26.679,63.076-64.871,119.724-113.516,168.368s-105.291,86.836-168.367,113.516
	C975.645,1061.327,906.276,1075.333,834.77,1075.333z M834.77,26.946c-70.025,0-137.954,13.713-201.897,40.759
	C571.108,93.83,515.636,131.23,467.998,178.868S382.96,281.977,356.836,343.742c-27.046,63.943-40.759,131.872-40.759,201.897
	c0,70.026,13.713,137.954,40.759,201.898c26.125,61.765,63.525,117.236,111.163,164.874s103.109,85.038,164.875,111.163
	c63.943,27.046,131.872,40.759,201.897,40.759s137.953-13.713,201.898-40.759c61.765-26.125,117.236-63.525,164.874-111.163
	s85.038-103.109,111.163-164.874c27.046-63.944,40.759-131.872,40.759-201.898c0-70.025-13.713-137.954-40.759-201.897
	c-26.125-61.765-63.525-117.237-111.163-164.875S1098.432,93.83,1036.667,67.705C972.723,40.659,904.795,26.946,834.77,26.946z"/>
<g>
	<path fill="#FFFFFF" d="M340.818,1194.833c18.145,24.193,44.355,44.355,76.613,54.435c74.597,24.193,155.242-10.081,189.516-78.629
		c-18.145-24.194-44.355-44.355-76.613-54.436C455.738,1092.01,375.093,1126.284,340.818,1194.833z"/>
	<path fill="#FFFFFF" d="M102.915,948.865c10.081,28.226,30.242,56.452,56.452,74.597c64.516,46.371,151.21,36.29,205.645-18.145
		c-10.081-28.226-30.242-56.452-56.452-74.597C244.044,886.365,157.351,894.43,102.915,948.865z"/>
	<path fill="#FFFFFF" d="M16.222,664.591c0,30.242,10.081,62.5,30.242,88.71c46.371,64.516,131.048,84.677,199.597,48.387
		c0-30.242-10.081-62.5-30.242-88.71C171.464,648.462,84.77,630.317,16.222,664.591z"/>
</g>
<g>
	<path fill="#FFFFFF" d="M1328.722,1194.833c-18.145,24.193-44.355,44.355-76.613,54.435
		c-74.597,24.193-155.242-10.081-189.516-78.629c18.145-24.194,44.355-44.355,76.613-54.436
		C1213.802,1092.01,1294.448,1126.284,1328.722,1194.833z"/>
	<path fill="#FFFFFF" d="M1566.625,948.865c-10.081,28.226-30.242,56.452-56.452,74.597c-64.516,46.371-151.21,36.29-205.645-18.145
		c10.081-28.226,30.242-56.452,56.452-74.597C1425.496,886.365,1512.189,894.43,1566.625,948.865z"/>
	<path fill="#FFFFFF" d="M1653.318,664.591c0,30.242-10.081,62.5-30.242,88.71c-46.371,64.516-131.048,84.677-199.597,48.387
		c0-30.242,10.081-62.5,30.242-88.71C1500.093,648.462,1584.77,630.317,1653.318,664.591z"/>
</g>
</svg>
