<?xml version="1.0" encoding="utf-8"?>
<!-- Generator: Adobe Illustrator 20.0.0, SVG Export Plug-In . SVG Version: 6.00 Build 0)  -->
<svg version="1.1" id="Layer_1" xmlns="http://www.w3.org/2000/svg" xmlns:xlink="http://www.w3.org/1999/xlink" x="0px" y="0px"
	 viewBox="0 0 223.5 93.9" style="enable-background:new 0 0 223.5 93.9;" xml:space="preserve">
<style type="text/css">
	.st0{fill:#FFFFFF;}
</style>
<g id="P">
	<g>
		<path class="st0" d="M35.6,22.2h-5.8v12.1h5.8c3.5,0,5.9-2.5,5.9-6.1S39.1,22.2,35.6,22.2z"/>
		<path class="st0" d="M61.5,0H8.1C3.6,0,0,3.7,0,8.1v53.4c0,4.5,3.6,8.1,8.1,8.1h53.4c4.5,0,8.1-3.6,8.1-8.1V8.1
			C69.6,3.7,66,0,61.5,0z M36.2,43.7h-6.4v9.7c0,3.3-2.1,5.5-5.3,5.5c-3.1,0-5.3-2.2-5.3-5.5V18.3c0-3.4,2.1-5.5,5.5-5.5h11.1
			c9.8,0,16.6,6.4,16.6,15.5C52.4,37.3,45.6,43.7,36.2,43.7z"/>
	</g>
</g>
<g id="P_Kopie">
	<g>
		<path class="st0" d="M113,22.2h-5.8v12.1h5.8c3.5,0,5.9-2.5,5.9-6.1S116.4,22.2,113,22.2z"/>
		<path class="st0" d="M138.8,0H85.5c-4.5,0-8.1,3.6-8.1,8.1v53.4c0,4.5,3.6,8.1,8.1,8.1h53.4c4.5,0,8.1-3.6,8.1-8.1V8.1
			C147,3.7,143.3,0,138.8,0z M113.5,43.7h-6.4v9.7c0,3.3-2.1,5.5-5.3,5.5c-3.1,0-5.3-2.2-5.3-5.5V18.3c0-3.4,2.1-5.5,5.5-5.5h11.1
			c9.8,0,16.6,6.4,16.6,15.5C129.7,37.3,122.9,43.7,113.5,43.7z"/>
	</g>
</g>
<g id="P_Kopie_Kopie">
	<g>
		<path class="st0" d="M189.5,22.2h-5.8v12.1h5.8c3.5,0,5.9-2.5,5.9-6.1S192.9,22.2,189.5,22.2z"/>
		<path class="st0" d="M215.3,0H162c-4.5,0-8.1,3.6-8.1,8.1v53.4c0,4.5,3.6,8.1,8.1,8.1h53.4c4.5,0,8.1-3.6,8.1-8.1V8.1
			C223.5,3.7,219.8,0,215.3,0z M190,43.7h-6.4v9.7c0,3.3-2.1,5.5-5.3,5.5c-3.1,0-5.3-2.2-5.3-5.5V18.3c0-3.4,2.1-5.5,5.5-5.5h11.1
			c9.8,0,16.6,6.4,16.6,15.5C206.2,37.3,199.4,43.7,190,43.7z"/>
	</g>
</g>
<g>
	<defs>
		<path id="SVGID_1_" d="M4.4,82.2H2.1V86c0,0.5-0.3,0.8-0.7,0.8c-0.5,0-0.7-0.3-0.7-0.8V75.6c0-0.5,0.2-0.8,0.8-0.8h2.9
			c2.4,0,3.9,1.7,3.9,3.8C8.2,80.6,6.6,82.2,4.4,82.2L4.4,82.2z M4.3,76H2.1V81h2.2c1.5,0,2.4-1.1,2.4-2.4C6.8,77.3,6.1,76,4.3,76
			L4.3,76z M14.4,76.1h-3.6V80h3.2c0.4,0,0.7,0.2,0.7,0.7c0,0.5-0.3,0.7-0.7,0.7h-3.2v3.9h3.6c0.4,0,0.7,0.2,0.7,0.7
			c0,0.5-0.3,0.7-0.7,0.7h-4.2c-0.6,0-0.8-0.4-0.8-0.8V75.6c0-0.5,0.2-0.8,0.8-0.8h4.2c0.4,0,0.7,0.2,0.7,0.7
			C15.1,75.9,14.8,76.1,14.4,76.1L14.4,76.1z M20.7,81.4l-0.6,0l3.8,4.2c0.2,0.2,0.3,0.4,0.3,0.7c0,0.3-0.3,0.6-0.7,0.6
			c-0.3,0-0.5-0.2-0.7-0.3l-4.6-5V86c0,0.5-0.3,0.8-0.7,0.8c-0.5,0-0.7-0.3-0.7-0.8V75.6c0-0.5,0.2-0.8,0.8-0.8h2.7
			c1.9,0,3.7,1.3,3.7,3.2C24,80.4,22.5,81.3,20.7,81.4L20.7,81.4z M20.3,76h-2v4.2h2c1.5,0,2.2-0.7,2.2-2.2C22.5,77,21.6,76,20.3,76
			L20.3,76z M37.3,86.8c-0.4,0-0.7-0.1-0.8-0.6l-1.4-9.6h0l-2.8,9.6c-0.2,0.5-0.4,0.6-0.8,0.6c-0.3,0-0.6-0.1-0.8-0.6l-2.8-9.6h0
			l-1.4,9.6c-0.1,0.5-0.4,0.6-0.8,0.6c-0.5,0-0.7-0.3-0.7-0.8c0-0.2,0-0.4,0.1-0.7l1.6-9.6c0.2-0.8,0.6-1.1,1.2-1.1
			c0.6,0,0.9,0.2,1.1,0.8l2.5,8.7h0l2.5-8.7c0.2-0.6,0.5-0.8,1.1-0.8c0.5,0,1,0.3,1.2,1.1l1.6,9.6C38,85.7,38,85.9,38,86
			C38,86.5,37.8,86.8,37.3,86.8L37.3,86.8z M47.4,82.2h-2.3V86c0,0.5-0.3,0.8-0.7,0.8c-0.5,0-0.7-0.3-0.7-0.8V75.6
			c0-0.5,0.2-0.8,0.8-0.8h2.9c2.4,0,3.9,1.7,3.9,3.8C51.2,80.6,49.6,82.2,47.4,82.2L47.4,82.2z M47.3,76h-2.1V81h2.2
			c1.5,0,2.4-1.1,2.4-2.4C49.8,77.3,49.1,76,47.3,76L47.3,76z M57,86.7h-3.8c-0.6,0-0.8-0.4-0.8-0.8V75.4c0-0.5,0.3-0.8,0.7-0.8
			c0.5,0,0.7,0.3,0.7,0.8v9.9H57c0.4,0,0.7,0.2,0.7,0.7C57.7,86.5,57.4,86.7,57,86.7L57,86.7z M67.3,86.8c-0.4,0-0.6-0.2-0.7-0.6
			l-0.8-2.1h-5.5l-0.8,2.1c-0.1,0.3-0.3,0.6-0.7,0.6c-0.4,0-0.7-0.2-0.7-0.6c0-0.2,0.2-0.6,0.2-0.7l3.7-9.9c0.2-0.5,0.5-0.9,1.1-0.9
			c0.6,0,0.9,0.4,1.1,0.9l3.7,9.9c0.1,0.2,0.2,0.5,0.2,0.7C68,86.6,67.7,86.8,67.3,86.8L67.3,86.8z M63.1,76.4L63.1,76.4l-2.3,6.5
			h4.6L63.1,76.4L63.1,76.4z M73.9,85.5c1.8,0,2.6-1.1,3.2-1.1c0.4,0,0.6,0.3,0.6,0.7c0,0.8-1.7,1.7-3.8,1.7c-3.5,0-5.2-3-5.2-6.1
			c0-3.1,1.8-6.1,5.3-6.1c2.1,0,3.5,1.1,3.5,1.7c0,0.4-0.2,0.7-0.6,0.7c-0.7,0-1-1.2-2.8-1.2c-2.6,0-3.7,2.5-3.7,4.8
			C70.3,83,71.4,85.5,73.9,85.5L73.9,85.5z M84.1,76.1h-3.6V80h3.2c0.4,0,0.7,0.2,0.7,0.7c0,0.5-0.3,0.7-0.7,0.7h-3.2v3.9h3.6
			c0.4,0,0.7,0.2,0.7,0.7c0,0.5-0.3,0.7-0.7,0.7h-4.2c-0.6,0-0.8-0.4-0.8-0.8V75.6c0-0.5,0.2-0.8,0.8-0.8h4.2c0.4,0,0.7,0.2,0.7,0.7
			C84.8,75.9,84.5,76.1,84.1,76.1L84.1,76.1z M98.4,86.8c-0.4,0-0.7-0.1-0.8-0.6l-1.4-9.6h0l-2.8,9.6c-0.2,0.5-0.4,0.6-0.8,0.6
			c-0.3,0-0.6-0.1-0.8-0.6l-2.8-9.6h0l-1.4,9.6c-0.1,0.5-0.4,0.6-0.8,0.6c-0.5,0-0.7-0.3-0.7-0.8c0-0.2,0-0.4,0.1-0.7l1.6-9.6
			c0.2-0.8,0.6-1.1,1.2-1.1c0.6,0,0.9,0.2,1.1,0.8l2.5,8.7h0l2.5-8.7c0.2-0.6,0.5-0.8,1.1-0.8c0.5,0,1,0.3,1.2,1.1l1.6,9.6
			C99,85.7,99,85.9,99,86C99,86.5,98.8,86.8,98.4,86.8L98.4,86.8z M105.5,76.1H102V80h3.2c0.4,0,0.7,0.2,0.7,0.7
			c0,0.5-0.3,0.7-0.7,0.7H102v3.9h3.6c0.4,0,0.7,0.2,0.7,0.7c0,0.5-0.3,0.7-0.7,0.7h-4.2c-0.6,0-0.8-0.4-0.8-0.8V75.6
			c0-0.5,0.2-0.8,0.8-0.8h4.2c0.4,0,0.7,0.2,0.7,0.7C106.3,75.9,106,76.1,105.5,76.1L105.5,76.1z M116.5,86.8c-0.4,0-0.6-0.2-1-0.8
			l-6-8.7h0V86c0,0.5-0.3,0.8-0.7,0.8c-0.5,0-0.7-0.3-0.7-0.8V75.5c0-0.6,0.2-0.9,0.7-0.9c0.4,0,0.6,0.2,1,0.8l6,8.7h0v-8.6
			c0-0.5,0.3-0.8,0.7-0.8c0.5,0,0.7,0.3,0.7,0.8v10.5C117.2,86.5,117,86.8,116.5,86.8L116.5,86.8z M124.9,76.1h-2.2V86
			c0,0.5-0.3,0.8-0.7,0.8c-0.5,0-0.7-0.3-0.7-0.8v-9.9h-2.2c-0.4,0-0.7-0.2-0.7-0.7c0-0.5,0.3-0.7,0.7-0.7h5.9
			c0.4,0,0.7,0.2,0.7,0.7C125.6,75.9,125.3,76.1,124.9,76.1L124.9,76.1z M134.5,82.2h-2.3V86c0,0.5-0.3,0.8-0.7,0.8
			c-0.5,0-0.7-0.3-0.7-0.8V75.6c0-0.5,0.2-0.8,0.8-0.8h2.9c2.4,0,3.9,1.7,3.9,3.8C138.3,80.6,136.7,82.2,134.5,82.2L134.5,82.2z
			 M134.4,76h-2.1V81h2.2c1.5,0,2.4-1.1,2.4-2.4C136.9,77.3,136.2,76,134.4,76L134.4,76z M143.4,81.4l-0.6,0l3.8,4.2
			c0.2,0.2,0.3,0.4,0.3,0.7c0,0.3-0.3,0.6-0.7,0.6c-0.3,0-0.5-0.2-0.7-0.3l-4.6-5V86c0,0.5-0.3,0.8-0.7,0.8c-0.5,0-0.7-0.3-0.7-0.8
			V75.6c0-0.5,0.2-0.8,0.8-0.8h2.7c1.9,0,3.7,1.3,3.7,3.2C146.6,80.4,145.2,81.3,143.4,81.4L143.4,81.4z M142.9,76h-2v4.2h2
			c1.5,0,2.2-0.7,2.2-2.2C145.2,77,144.3,76,142.9,76L142.9,76z M152.9,86.8c-3.4,0-5.2-3-5.2-6.1c0-3.1,1.8-6.1,5.2-6.1
			c3.4,0,5.2,3,5.2,6.1C158.2,83.8,156.3,86.8,152.9,86.8L152.9,86.8z M152.9,75.9c-2.7,0-3.7,2.5-3.7,4.8c0,2.3,1,4.8,3.7,4.8
			c2.7,0,3.7-2.5,3.7-4.8C156.6,78.4,155.6,75.9,152.9,75.9L152.9,75.9z M166,81.2c-0.4,0-0.7-0.2-0.7-0.7c0-0.5,0.3-0.7,0.7-0.7
			h2.5c0.8,0,1.1,0.3,1.1,1.2c0,2.9-1,5.7-5.1,5.7c-3.4,0-5.2-3-5.2-6.1c0-3.1,1.7-6.1,5.4-6.1c2.4,0,4.1,1.3,4.1,1.9
			c0,0.4-0.3,0.7-0.7,0.7c-0.7,0-1.3-1.3-3.5-1.3c-2.7,0-3.8,2.5-3.8,4.8c0,2.3,1.1,4.8,3.8,4.8c2.3,0,3.4-2,3.4-3.6v-0.7H166
			L166,81.2z M174.8,81.4l-0.6,0l3.8,4.2c0.2,0.2,0.3,0.4,0.3,0.7c0,0.3-0.3,0.6-0.7,0.6c-0.3,0-0.5-0.2-0.7-0.3l-4.6-5V86
			c0,0.5-0.3,0.8-0.7,0.8c-0.5,0-0.7-0.3-0.7-0.8V75.6c0-0.5,0.2-0.8,0.8-0.8h2.7c1.9,0,3.7,1.3,3.7,3.2
			C178,80.4,176.5,81.3,174.8,81.4L174.8,81.4z M174.3,76h-2v4.2h2c1.5,0,2.2-0.7,2.2-2.2C176.5,77,175.7,76,174.3,76L174.3,76z
			 M188,86.8c-0.4,0-0.6-0.2-0.7-0.6l-0.8-2.1h-5.5l-0.8,2.1c-0.1,0.3-0.3,0.6-0.7,0.6c-0.4,0-0.7-0.2-0.7-0.6
			c0-0.2,0.2-0.6,0.2-0.7l3.7-9.9c0.2-0.5,0.5-0.9,1.1-0.9c0.6,0,0.9,0.4,1.1,0.9l3.7,9.9c0.1,0.2,0.2,0.5,0.2,0.7
			C188.7,86.6,188.3,86.8,188,86.8L188,86.8z M183.7,76.4L183.7,76.4l-2.3,6.5h4.6L183.7,76.4L183.7,76.4z M201.6,86.8
			c-0.4,0-0.7-0.1-0.8-0.6l-1.4-9.6h0l-2.8,9.6c-0.2,0.5-0.4,0.6-0.8,0.6s-0.6-0.1-0.8-0.6l-2.8-9.6h0l-1.4,9.6
			c-0.1,0.5-0.4,0.6-0.8,0.6c-0.5,0-0.7-0.3-0.7-0.8c0-0.2,0-0.4,0.1-0.7l1.6-9.6c0.2-0.8,0.6-1.1,1.2-1.1c0.6,0,0.9,0.2,1.1,0.8
			l2.5,8.7h0l2.5-8.7c0.2-0.6,0.5-0.8,1.1-0.8c0.5,0,1,0.3,1.2,1.1l1.6,9.6c0.1,0.3,0.1,0.5,0.1,0.7
			C202.3,86.5,202.1,86.8,201.6,86.8L201.6,86.8z M215.6,86.8c-0.4,0-0.7-0.1-0.8-0.6l-1.4-9.6h0l-2.8,9.6c-0.2,0.5-0.4,0.6-0.8,0.6
			s-0.6-0.1-0.8-0.6l-2.8-9.6h0l-1.4,9.6c-0.1,0.5-0.4,0.6-0.8,0.6c-0.5,0-0.7-0.3-0.7-0.8c0-0.2,0-0.4,0.1-0.7l1.6-9.6
			c0.2-0.8,0.6-1.1,1.2-1.1c0.6,0,0.9,0.2,1.1,0.8l2.5,8.7h0l2.5-8.7c0.2-0.6,0.5-0.8,1.1-0.8c0.5,0,1,0.3,1.2,1.1l1.6,9.6
			c0.1,0.3,0.1,0.5,0.1,0.7C216.3,86.5,216.1,86.8,215.6,86.8L215.6,86.8z M222.8,76.1h-3.6V80h3.2c0.4,0,0.7,0.2,0.7,0.7
			c0,0.5-0.3,0.7-0.7,0.7h-3.2v3.9h3.6c0.4,0,0.7,0.2,0.7,0.7c0,0.5-0.3,0.7-0.7,0.7h-4.2c-0.6,0-0.8-0.4-0.8-0.8V75.6
			c0-0.5,0.2-0.8,0.8-0.8h4.2c0.4,0,0.7,0.2,0.7,0.7C223.5,75.9,223.2,76.1,222.8,76.1L222.8,76.1z"/>
	</defs>
	<use xlink:href="#SVGID_1_"  style="overflow:visible;fill:#FFFFFF;"/>
	<clipPath id="SVGID_2_">
		<use xlink:href="#SVGID_1_"  style="overflow:visible;"/>
	</clipPath>
</g>
</svg>
