<?xml version="1.0" encoding="utf-8"?>
<!-- Generator: Adobe Illustrator 17.0.0, SVG Export Plug-In . SVG Version: 6.00 Build 0)  -->
<!DOCTYPE svg PUBLIC "-//W3C//DTD SVG 1.1//EN" "http://www.w3.org/Graphics/SVG/1.1/DTD/svg11.dtd">
<svg version="1.1" id="Ebene_1" xmlns="http://www.w3.org/2000/svg" xmlns:xlink="http://www.w3.org/1999/xlink" x="0px" y="0px"
	 width="25.625px" height="31.188px" viewBox="0 0 25.625 31.188" enable-background="new 0 0 25.625 31.188" xml:space="preserve">
<g>
	<path fill="#C4D36D" d="M11.084,16.939h-7.8c-0.825,0-1.5-0.675-1.5-1.5v-0.626c0-0.825,0.675-1.5,1.5-1.5h7.8
		c0.825,0,1.5,0.675,1.5,1.5v0.626C12.584,16.264,11.909,16.939,11.084,16.939z"/>
	<path fill="#C4D36D" d="M12.001,21.365H2.055c-0.825,0-1.5-0.675-1.5-1.5v-0.626c0-0.825,0.675-1.5,1.5-1.5h9.946
		c0.825,0,1.5,0.675,1.5,1.5v0.626C13.501,20.69,12.826,21.365,12.001,21.365z"/>
	<path fill="#C4D36D" d="M12.001,25.896H2.055c-0.825,0-1.5-0.675-1.5-1.5v-0.626c0-0.825,0.675-1.5,1.5-1.5h9.946
		c0.825,0,1.5,0.675,1.5,1.5v0.626C13.501,25.221,12.826,25.896,12.001,25.896z"/>
	<path fill="#C4D36D" d="M9.439,30.497H6.427c-0.825,0-1.5-0.675-1.5-1.5v-0.626c0-0.825,0.675-1.5,1.5-1.5h3.012
		c0.825,0,1.5,0.675,1.5,1.5v0.626C10.939,29.822,10.264,30.497,9.439,30.497z"/>
	<path fill="#C4D36D" d="M12.76,13.021c0,0,1.616,2.427,0.176,3.918c0,0,1.51,0.854,1.51,2.612c0,1.759-1.194,2.426-1.194,2.426
		s1.124,0.802,1.194,1.859c0.07,1.056-0.234,3.034-3.507,3.034c0,0,0.872,0.476,0.837,1.778c-0.035,1.302-0.837,1.848-0.837,1.848
		h9.217c0,0,4.531-0.019,4.672-6.728v-5.76c0,0,0.211-4.285-3.056-5.339c-0.971-0.313-2.655-0.738-3.744-2.213
		c-2.244-3.04-2.207-7.285-2.207-7.285s-0.211-2.599-2.599-2.529S10.764,2.75,10.764,2.75S11.32,9.473,12.76,13.021z"/>
</g>
</svg>
