<?xml version="1.0" encoding="utf-8"?>
<!-- Generator: Adobe Illustrator 17.0.0, SVG Export Plug-In . SVG Version: 6.00 Build 0)  -->
<!DOCTYPE svg PUBLIC "-//W3C//DTD SVG 1.1//EN" "http://www.w3.org/Graphics/SVG/1.1/DTD/svg11.dtd">
<svg version="1.1" id="Ebene_1" xmlns="http://www.w3.org/2000/svg" xmlns:xlink="http://www.w3.org/1999/xlink" x="0px" y="0px"
	 width="25.625px" height="31.188px" viewBox="0 0 25.625 31.188" enable-background="new 0 0 25.625 31.188" xml:space="preserve">
<g>
	<path fill="#D78189" d="M14.301,14.199h7.8c0.825,0,1.5,0.675,1.5,1.5v0.626c0,0.825-0.675,1.5-1.5,1.5h-7.8
		c-0.825,0-1.5-0.675-1.5-1.5v-0.626C12.801,14.874,13.476,14.199,14.301,14.199z"/>
	<path fill="#D78189" d="M13.385,9.774h9.946c0.825,0,1.5,0.675,1.5,1.5V11.9c0,0.825-0.675,1.5-1.5,1.5h-9.946
		c-0.825,0-1.5-0.675-1.5-1.5v-0.626C11.885,10.449,12.56,9.774,13.385,9.774z"/>
	<path fill="#D78189" d="M13.385,5.242h9.946c0.825,0,1.5,0.675,1.5,1.5v0.626c0,0.825-0.675,1.5-1.5,1.5h-9.946
		c-0.825,0-1.5-0.675-1.5-1.5V6.742C11.885,5.917,12.56,5.242,13.385,5.242z"/>
	<path fill="#D78189" d="M15.946,0.641h3.012c0.825,0,1.5,0.675,1.5,1.5v0.626c0,0.825-0.675,1.5-1.5,1.5h-3.012
		c-0.825,0-1.5-0.675-1.5-1.5V2.141C14.446,1.316,15.121,0.641,15.946,0.641z"/>
	<path fill="#D78189" d="M12.626,18.117c0,0-1.616-2.427-0.176-3.918c0,0-1.51-0.854-1.51-2.612s1.194-2.426,1.194-2.426
		S11.01,8.358,10.94,7.302c-0.07-1.056,0.234-3.034,3.507-3.034c0,0-0.872-0.476-0.837-1.778s0.837-1.848,0.837-1.848H5.229
		c0,0-4.531,0.019-4.672,6.728v5.76c0,0-0.211,4.285,3.056,5.339c0.971,0.313,2.655,0.738,3.744,2.213
		c2.244,3.04,2.207,7.285,2.207,7.285s0.211,2.599,2.599,2.529s2.459-2.107,2.459-2.107S14.066,21.665,12.626,18.117z"/>
</g>
</svg>
