<?xml version="1.0" encoding="utf-8"?>
<!-- Generator: Adobe Illustrator 17.0.0, SVG Export Plug-In . SVG Version: 6.00 Build 0)  -->
<!DOCTYPE svg PUBLIC "-//W3C//DTD SVG 1.1//EN" "http://www.w3.org/Graphics/SVG/1.1/DTD/svg11.dtd">
<svg version="1.1" id="Layer_1" xmlns="http://www.w3.org/2000/svg" xmlns:xlink="http://www.w3.org/1999/xlink" x="0px" y="0px"
	 width="19.332px" height="16.185px" viewBox="0 0 19.332 16.185" enable-background="new 0 0 19.332 16.185" xml:space="preserve">
<g>
	<path fill="#FFFFFF" d="M18.949,2.458c-0.526,0.769-1.161,1.424-1.906,1.965c0.008,0.11,0.012,0.274,0.012,0.494
		c0,1.019-0.149,2.037-0.447,3.052c-0.298,1.016-0.751,1.99-1.359,2.923c-0.608,0.934-1.331,1.759-2.17,2.476
		c-0.839,0.718-1.851,1.29-3.035,1.718c-1.184,0.427-2.451,0.641-3.799,0.641c-2.125,0-4.07-0.569-5.835-1.706
		c0.274,0.032,0.58,0.047,0.918,0.047c1.764,0,3.337-0.541,4.717-1.623c-0.823-0.016-1.561-0.269-2.212-0.759
		c-0.651-0.49-1.098-1.115-1.341-1.876C2.751,9.85,2.99,9.869,3.21,9.869c0.337,0,0.671-0.043,1-0.129
		c-0.878-0.18-1.606-0.618-2.182-1.312c-0.576-0.694-0.865-1.5-0.865-2.417V5.964C1.696,6.262,2.269,6.423,2.88,6.446
		C2.363,6.101,1.951,5.65,1.645,5.093C1.339,4.537,1.187,3.933,1.187,3.282c0-0.69,0.172-1.329,0.517-1.917
		C2.653,2.533,3.807,3.468,5.168,4.17c1.361,0.702,2.817,1.092,4.37,1.17C9.475,5.043,9.444,4.752,9.444,4.47
		c0-1.051,0.371-1.947,1.112-2.688s1.637-1.112,2.688-1.112c1.098,0,2.023,0.4,2.776,1.2c0.855-0.165,1.659-0.471,2.412-0.918
		c-0.29,0.902-0.847,1.6-1.671,2.094C17.49,2.968,18.22,2.772,18.949,2.458z"/>
</g>
</svg>
