<?xml version="1.0" encoding="utf-8"?>
<!-- Generator: Adobe Illustrator 17.0.0, SVG Export Plug-In . SVG Version: 6.00 Build 0)  -->
<!DOCTYPE svg PUBLIC "-//W3C//DTD SVG 1.1//EN" "http://www.w3.org/Graphics/SVG/1.1/DTD/svg11.dtd">
<svg version="1.1" id="Layer_1" xmlns="http://www.w3.org/2000/svg" xmlns:xlink="http://www.w3.org/1999/xlink" x="0px" y="0px"
	 width="14.008px" height="16.185px" viewBox="0 0 14.008 16.185" enable-background="new 0 0 14.008 16.185" xml:space="preserve">
<g>
	<path fill="#FFFFFF" d="M11.405,10.342c0,1.535-0.525,2.87-1.574,4.005c-1.057,1.149-2.406,1.724-4.048,1.724
		c-1.656,0-3.006-0.575-4.048-1.724c-1.05-1.135-1.574-2.47-1.574-4.005c0-1.05,0.243-2.015,0.728-2.897
		c0.485-0.881,1.16-1.583,2.024-2.104c0.864-0.521,1.82-0.781,2.87-0.781c0.686,0,1.335,0.111,1.949,0.332
		C7.504,5.333,7.365,5.783,7.315,6.24c-0.471-0.199-0.982-0.3-1.531-0.3c-1.192,0-2.194,0.44-3.004,1.318
		c-0.81,0.878-1.215,1.917-1.215,3.116c0,1.214,0.402,2.244,1.205,3.09c0.803,0.846,1.808,1.269,3.015,1.269s2.21-0.423,3.009-1.269
		c0.799-0.846,1.199-1.876,1.199-3.09c0-0.636-0.114-1.228-0.343-1.778c0.471-0.093,0.91-0.267,1.317-0.525
		C11.259,8.771,11.405,9.528,11.405,10.342z M9.221,8.318c0,1.37-0.284,2.602-0.851,3.694c-0.568,1.093-1.419,1.996-2.554,2.71
		l-0.15,0.011c-0.207,0-0.428-0.018-0.664-0.053c0.593-0.228,1.115-0.594,1.569-1.098c0.453-0.503,0.808-1.054,1.066-1.654
		c0.257-0.6,0.466-1.274,0.626-2.024c0.161-0.75,0.268-1.437,0.321-2.062c0.054-0.625,0.08-1.262,0.08-1.911
		c0-0.493-0.011-0.86-0.032-1.104C9.025,5.969,9.221,7.132,9.221,8.318z M8.632,4.805v0.021C8.11,3.298,7.375,1.727,6.426,0.114
		c0.628,0.421,1.137,1.087,1.526,1.997C8.341,3.021,8.568,3.919,8.632,4.805z M11.245,6.979c-0.592,0-1.163-0.268-1.713-0.804
		c1.556-0.856,2.592-1.738,3.106-2.645c0.136-0.264,0.211-0.464,0.225-0.6c-0.3,0.671-0.798,1.265-1.494,1.783
		c-0.696,0.517-1.426,0.866-2.19,1.044c-0.25-0.386-0.375-0.789-0.375-1.21c0-0.264,0.061-0.546,0.182-0.846
		c0.121-0.3,0.275-0.543,0.46-0.728c0.329-0.314,0.889-0.578,1.681-0.792c0.421-0.114,0.8-0.323,1.135-0.627
		c0.336-0.303,0.6-0.662,0.792-1.076c0.528,0.75,0.793,1.653,0.793,2.71c0,0.778-0.086,1.385-0.257,1.821
		c-0.228,0.55-0.544,1.016-0.948,1.397C12.239,6.788,11.773,6.979,11.245,6.979z"/>
</g>
</svg>
