<?xml version="1.0" encoding="utf-8"?>
<!-- Generator: Adobe Illustrator 17.0.0, SVG Export Plug-In . SVG Version: 6.00 Build 0)  -->
<!DOCTYPE svg PUBLIC "-//W3C//DTD SVG 1.1//EN" "http://www.w3.org/Graphics/SVG/1.1/DTD/svg11.dtd">
<svg version="1.1" id="Layer_1" xmlns="http://www.w3.org/2000/svg" xmlns:xlink="http://www.w3.org/1999/xlink" x="0px" y="0px"
	 width="14.008px" height="16.185px" viewBox="0 0 14.008 16.185" enable-background="new 0 0 14.008 16.185" xml:space="preserve">
<g>
	<path fill="#FFFFFF" d="M6.013,6.513c-0.063,0.113-0.87,1.544-2.42,4.293c-0.17,0.289-0.374,0.433-0.612,0.433h-2.25
		c-0.132,0-0.23-0.052-0.292-0.159c-0.063-0.107-0.063-0.22,0-0.339l2.382-4.218c0.006,0,0.006-0.003,0-0.01L1.306,3.886
		C1.23,3.748,1.227,3.631,1.296,3.538c0.056-0.095,0.156-0.142,0.301-0.142h2.25c0.251,0,0.458,0.142,0.622,0.424L6.013,6.513z
		 M13.602,0.468c0.07,0.1,0.07,0.217,0,0.349L8.631,9.61v0.009l3.164,5.791c0.069,0.125,0.072,0.242,0.009,0.349
		c-0.062,0.094-0.162,0.141-0.301,0.141H9.252c-0.263,0-0.47-0.141-0.621-0.423L5.439,9.619c0.113-0.201,1.779-3.157,4.999-8.869
		c0.157-0.282,0.358-0.423,0.603-0.423h2.269C13.448,0.327,13.546,0.374,13.602,0.468z"/>
</g>
</svg>
