<?xml version="1.0" encoding="utf-8"?>
<!-- Generator: Adobe Illustrator 17.0.0, SVG Export Plug-In . SVG Version: 6.00 Build 0)  -->
<!DOCTYPE svg PUBLIC "-//W3C//DTD SVG 1.1//EN" "http://www.w3.org/Graphics/SVG/1.1/DTD/svg11.dtd">
<svg version="1.1" id="Layer_1" xmlns="http://www.w3.org/2000/svg" xmlns:xlink="http://www.w3.org/1999/xlink" x="0px" y="0px"
	 width="15.333px" height="18.558px" viewBox="0 0 15.333 18.558" enable-background="new 0 0 15.333 18.558" xml:space="preserve">
<g>
	<path fill="#FFFFFF" d="M14.84,13.141c0,1.534-0.086,2.681-0.256,3.441c-0.092,0.387-0.281,0.712-0.57,0.974
		c-0.289,0.263-0.623,0.413-1.004,0.452c-1.205,0.138-3.025,0.207-5.458,0.207s-4.251-0.069-5.458-0.207
		c-0.38-0.039-0.716-0.189-1.008-0.452c-0.292-0.262-0.48-0.587-0.565-0.974c-0.17-0.734-0.255-1.881-0.255-3.441
		c0-1.534,0.085-2.681,0.255-3.442c0.092-0.387,0.282-0.711,0.57-0.974C1.38,8.464,1.717,8.31,2.104,8.264
		c1.2-0.131,3.016-0.197,5.448-0.197s4.252,0.065,5.458,0.197c0.381,0.046,0.717,0.2,1.008,0.462
		c0.293,0.262,0.48,0.587,0.566,0.974C14.754,10.433,14.84,11.581,14.84,13.141z M3.373,10.693h1.052V9.768H1.357v0.925H2.39v5.595
		h0.983V10.693z M5.025,0.593h1.003L4.838,4.517v2.665H3.855V4.517c-0.092-0.485-0.292-1.18-0.6-2.085
		C3.012,1.757,2.799,1.144,2.616,0.593h1.042L4.356,3.18L5.025,0.593z M6.205,16.288H7.08V11.43H6.205v3.717
		c-0.197,0.275-0.384,0.413-0.561,0.413c-0.118,0-0.187-0.068-0.207-0.206c-0.006-0.021-0.01-0.135-0.01-0.345V11.43H4.553v3.845
		c0,0.321,0.026,0.561,0.079,0.718c0.079,0.242,0.269,0.364,0.57,0.364c0.314,0,0.649-0.2,1.003-0.601V16.288z M8.664,3.868v1.721
		c0,0.531-0.092,0.918-0.275,1.16c-0.243,0.334-0.59,0.501-1.042,0.501c-0.439,0-0.783-0.167-1.033-0.501
		C6.129,6.5,6.038,6.113,6.038,5.589V3.868c0-0.524,0.091-0.908,0.275-1.15c0.25-0.334,0.593-0.501,1.033-0.501
		c0.452,0,0.8,0.167,1.042,0.501C8.572,2.96,8.664,3.343,8.664,3.868z M7.769,5.756V3.691c0-0.453-0.141-0.679-0.423-0.679
		S6.923,3.238,6.923,3.691v2.065c0,0.459,0.141,0.688,0.423,0.688S7.769,6.215,7.769,5.756z M10.424,14.833v-1.938
		c0-0.479-0.029-0.803-0.088-0.974c-0.111-0.367-0.345-0.551-0.699-0.551c-0.328,0-0.633,0.178-0.915,0.531V9.768H7.847v6.52h0.875
		v-0.472c0.295,0.36,0.6,0.541,0.915,0.541c0.354,0,0.587-0.181,0.699-0.541C10.395,15.639,10.424,15.311,10.424,14.833z
		 M9.548,12.827v2.074c0,0.439-0.128,0.659-0.383,0.659c-0.151,0-0.298-0.072-0.442-0.217v-2.959
		c0.144-0.145,0.292-0.217,0.442-0.217C9.42,12.168,9.548,12.387,9.548,12.827z M11.959,2.275v4.907h-0.896V6.641
		c-0.347,0.406-0.684,0.609-1.013,0.609c-0.301,0-0.495-0.121-0.58-0.364C9.417,6.73,9.391,6.484,9.391,6.15V2.275h0.896v3.609
		c0,0.216,0.002,0.331,0.01,0.344c0.02,0.144,0.088,0.216,0.206,0.216c0.177,0,0.364-0.141,0.56-0.423V2.275H11.959z M13.748,14.734
		v-0.128h-0.895c0,0.335-0.008,0.534-0.02,0.601c-0.047,0.235-0.178,0.354-0.395,0.354c-0.301,0-0.451-0.227-0.451-0.679v-0.855
		h1.76v-1.013c0-0.518-0.088-0.898-0.266-1.141c-0.256-0.334-0.604-0.502-1.043-0.502c-0.445,0-0.797,0.168-1.051,0.502
		c-0.184,0.242-0.275,0.623-0.275,1.141v1.701c0,0.518,0.094,0.898,0.285,1.141c0.256,0.334,0.609,0.502,1.061,0.502
		c0.473,0,0.826-0.174,1.062-0.521c0.119-0.177,0.188-0.354,0.207-0.531C13.742,15.246,13.748,15.055,13.748,14.734z M12.873,12.837
		v0.452h-0.885v-0.452c0-0.446,0.146-0.669,0.441-0.669S12.873,12.39,12.873,12.837z"/>
</g>
</svg>
